<?xml version="1.0" encoding="iso-8859-1"?>
<!-- Generator: Adobe Illustrator 19.0.0, SVG Export Plug-In . SVG Version: 6.00 Build 0)  -->
<svg version="1.1" id="Layer_1" xmlns="http://www.w3.org/2000/svg" xmlns:xlink="http://www.w3.org/1999/xlink" x="0px" y="0px"
	 viewBox="0 0 512 512" style="enable-background:new 0 0 512 512;" xml:space="preserve">
<g>
	<path style="fill:#242D3C;" d="M492.553,512H19.447V221.829h473.106V512z M38.371,493.076h435.259V240.753H38.371V493.076z"/>
	<path style="fill:#242D3C;" d="M492.553,240.753H19.447v-75.699h473.106V240.753z M38.371,221.829h435.259v-37.847H38.371V221.829z
		"/>
	<rect x="59.188" y="193.434" style="fill:#242D3C;" width="18.924" height="18.924"/>
	<rect x="97.038" y="193.434" style="fill:#242D3C;" width="18.924" height="18.924"/>
	<rect x="134.885" y="193.434" style="fill:#242D3C;" width="18.924" height="18.924"/>
</g>
<rect x="59.188" y="261.555" style="fill:#F96232;" width="393.626" height="210.688"/>
<g>
	
		<rect x="158.974" y="52.396" transform="matrix(-0.7072 -0.707 0.707 -0.7072 199.928 330.6725)" style="fill:#242D3C;" width="18.921" height="143.085"/>
	
		<rect x="272.028" y="114.462" transform="matrix(-0.7071 -0.7071 0.7071 -0.7071 498.8824 454.4917)" style="fill:#242D3C;" width="143.082" height="18.923"/>
	<path style="fill:#242D3C;" d="M256.001,72.748c-20.052,0-36.367-16.317-36.367-36.375S235.949,0,256.001,0
		c20.055,0,36.372,16.315,36.372,36.372S276.056,72.748,256.001,72.748z M256.001,18.924c-9.618,0-17.444,7.826-17.444,17.449
		s7.826,17.452,17.444,17.452c9.62,0,17.444-7.831,17.444-17.452C273.445,26.749,265.622,18.924,256.001,18.924z"/>
</g>
<g>
	<path style="fill:#FFFFFF;" d="M263.43,420.892H248.58c-8.468,0-16.433-3.297-22.423-9.293c-5.993-6.006-9.288-13.97-9.288-22.433
		V344.66c0-8.476,3.3-16.44,9.283-22.431c5.993-5.998,13.96-9.295,22.426-9.295h14.851c8.458,0,16.415,3.292,22.413,9.288
		c6.011,6.019,9.316,13.983,9.316,22.438v44.506c0,8.445-3.3,16.407-9.303,22.42C279.845,417.595,271.889,420.892,263.43,420.892z
		 M248.58,331.86c-3.41,0-6.623,1.331-9.042,3.75c-2.414,2.412-3.745,5.629-3.745,9.052v44.506c0,3.418,1.334,6.636,3.753,9.062
		c2.409,2.409,5.624,3.74,9.032,3.74h14.851c3.41,0,6.618-1.331,9.039-3.756c2.419-2.429,3.763-5.647,3.763-9.047v-44.506
		c0-3.405-1.341-6.623-3.776-9.057c-2.409-2.414-5.617-3.745-9.027-3.745H248.58z"/>
	<path style="fill:#FFFFFF;" d="M185.332,420.892h-18.924v-29.665h-40.986c-3.689,0-7.04-2.143-8.586-5.489
		c-1.551-3.351-1.014-7.291,1.377-10.102l50.442-59.366c2.568-3.021,6.746-4.124,10.473-2.755c3.727,1.367,6.2,4.918,6.2,8.883
		v98.493H185.332z M145.878,372.306h20.531v-24.159L145.878,372.306z"/>
	<rect x="166.401" y="372.301" style="fill:#FFFFFF;" width="27.832" height="18.924"/>
	<path style="fill:#FFFFFF;" d="M387.148,420.892h-18.924v-29.665h-40.991c-3.689,0-7.037-2.143-8.589-5.489
		c-1.544-3.351-1.009-7.291,1.382-10.102l50.445-59.366c2.568-3.021,6.746-4.124,10.478-2.755c3.72,1.367,6.198,4.918,6.198,8.883
		V420.892z M347.693,372.306h20.534v-24.161L347.693,372.306z"/>
	<rect x="368.232" y="372.301" style="fill:#FFFFFF;" width="27.814" height="18.924"/>
</g>
<g>
</g>
<g>
</g>
<g>
</g>
<g>
</g>
<g>
</g>
<g>
</g>
<g>
</g>
<g>
</g>
<g>
</g>
<g>
</g>
<g>
</g>
<g>
</g>
<g>
</g>
<g>
</g>
<g>
</g>
</svg>
