<?xml version="1.0" encoding="iso-8859-1"?>
<!-- Generator: Adobe Illustrator 19.0.0, SVG Export Plug-In . SVG Version: 6.00 Build 0)  -->
<svg version="1.1" id="Layer_1" xmlns="http://www.w3.org/2000/svg" xmlns:xlink="http://www.w3.org/1999/xlink" x="0px" y="0px"
	 viewBox="0 0 512 512" style="enable-background:new 0 0 512 512;" xml:space="preserve">
<g>
	<rect x="169.473" y="37.381" style="fill:#242D3C;" width="48.666" height="18.964"/>
	<polygon style="fill:#242D3C;" points="490.833,359.229 21.167,359.229 21.167,37.381 93.751,37.381 93.751,56.346 40.132,56.346 
		40.132,340.268 471.871,340.268 471.871,56.346 418.254,56.346 418.254,37.381 490.833,37.381 	"/>
	<rect x="293.864" y="37.381" style="fill:#242D3C;" width="48.666" height="18.964"/>
	<path style="fill:#242D3C;" d="M178.95,77.988H84.269V15.754h94.682V77.988z M103.231,59.026h56.755V34.719h-56.755
		C103.231,34.719,103.231,59.026,103.231,59.026z"/>
	<rect x="122.129" style="fill:#242D3C;" width="18.962" height="25.236"/>
	<path style="fill:#242D3C;" d="M303.341,77.988h-94.682V15.754h94.682V77.988L303.341,77.988z M227.624,59.026h56.755V34.719
		h-56.755V59.026z"/>
	<rect x="246.529" style="fill:#242D3C;" width="18.964" height="25.236"/>
	<path style="fill:#242D3C;" d="M427.734,77.988h-94.679V15.754h94.679L427.734,77.988L427.734,77.988z M352.017,59.026h56.755
		V34.719h-56.755V59.026z"/>
	<rect x="370.92" style="fill:#242D3C;" width="18.964" height="25.236"/>
	<polygon style="fill:#242D3C;" points="287.116,512 268.154,512 268.154,359.229 243.849,359.229 243.849,512 224.887,512 
		224.887,340.268 287.116,340.268 	"/>
	<rect x="21.636" y="376.32" style="fill:#242D3C;" width="468.736" height="18.962"/>
	<rect x="122.129" y="349.747" style="fill:#242D3C;" width="18.962" height="36.045"/>
	<rect x="370.92" y="349.747" style="fill:#242D3C;" width="18.964" height="36.045"/>
</g>
<rect x="84.737" y="225.843" style="fill:#43D3E8;" width="93.747" height="91.446"/>
<g>
	<rect x="84.737" y="174.848" style="fill:#242D3C;" width="18.962" height="18.962"/>
	<rect x="84.737" y="138.227" style="fill:#242D3C;" width="18.962" height="18.307"/>
	<rect x="84.737" y="100.956" style="fill:#242D3C;" width="18.962" height="18.964"/>
	<rect x="122.305" y="100.956" style="fill:#242D3C;" width="18.609" height="18.964"/>
	<rect x="159.515" y="100.956" style="fill:#242D3C;" width="18.962" height="18.964"/>
	<rect x="159.515" y="138.23" style="fill:#242D3C;" width="18.962" height="18.304"/>
	<rect x="159.515" y="174.848" style="fill:#242D3C;" width="18.962" height="18.962"/>
	<rect x="122.305" y="174.848" style="fill:#242D3C;" width="18.609" height="18.962"/>
</g>
<g>
	<rect x="209.128" y="225.843" style="fill:#43D3E8;" width="93.75" height="91.446"/>
	<rect x="209.128" y="100.956" style="fill:#43D3E8;" width="93.75" height="92.851"/>
</g>
<g>
	<rect x="333.518" y="298.342" style="fill:#242D3C;" width="18.964" height="18.964"/>
	<rect x="333.518" y="262.656" style="fill:#242D3C;" width="18.964" height="17.841"/>
	<rect x="333.518" y="225.843" style="fill:#242D3C;" width="18.964" height="18.964"/>
	<rect x="371.099" y="225.843" style="fill:#242D3C;" width="18.609" height="18.964"/>
	<rect x="408.296" y="225.843" style="fill:#242D3C;" width="18.964" height="18.964"/>
	<rect x="408.296" y="262.656" style="fill:#242D3C;" width="18.964" height="17.846"/>
	<rect x="408.296" y="298.342" style="fill:#242D3C;" width="18.964" height="18.964"/>
	<rect x="371.099" y="298.342" style="fill:#242D3C;" width="18.609" height="18.964"/>
</g>
<rect x="333.518" y="100.956" style="fill:#43D3E8;" width="93.75" height="92.851"/>
<g>
</g>
<g>
</g>
<g>
</g>
<g>
</g>
<g>
</g>
<g>
</g>
<g>
</g>
<g>
</g>
<g>
</g>
<g>
</g>
<g>
</g>
<g>
</g>
<g>
</g>
<g>
</g>
<g>
</g>
</svg>
