<?xml version="1.0" encoding="iso-8859-1"?>
<!-- Generator: Adobe Illustrator 19.0.0, SVG Export Plug-In . SVG Version: 6.00 Build 0)  -->
<svg version="1.1" id="Layer_1" xmlns="http://www.w3.org/2000/svg" xmlns:xlink="http://www.w3.org/1999/xlink" x="0px" y="0px"
	 viewBox="0 0 512 512" style="enable-background:new 0 0 512 512;" xml:space="preserve">
<g>
	<rect x="30.692" y="118.323" style="fill:#242D3C;" width="19.044" height="19.041"/>
	<polygon style="fill:#242D3C;" points="73.636,442.545 0,442.545 0,148.28 73.636,148.28 73.636,167.324 19.041,167.324 
		19.041,423.503 73.636,423.503 	"/>
	<polygon style="fill:#242D3C;" points="73.636,167.324 0,167.324 0,88.371 73.636,88.371 73.636,107.412 19.041,107.412 
		19.041,148.28 73.636,148.28 	"/>
	<rect x="462.259" y="118.323" style="fill:#242D3C;" width="19.041" height="19.041"/>
	<polygon style="fill:#242D3C;" points="512,442.545 438.364,442.545 438.364,423.503 492.959,423.503 492.959,167.324 
		438.364,167.324 438.364,148.28 512,148.28 	"/>
	<polygon style="fill:#242D3C;" points="512,167.324 438.364,167.324 438.364,148.28 492.959,148.28 492.959,107.412 
		438.364,107.412 438.364,88.371 512,88.371 	"/>
</g>
<rect x="73.636" y="196.173" style="fill:#43D3E8;" width="364.723" height="113.69"/>
<g>
	<polygon style="fill:#FFFFFF;" points="139.942,282.598 110.359,253.012 139.942,223.429 153.405,236.895 137.288,253.012 
		153.405,269.133 	"/>
	<polygon style="fill:#FFFFFF;" points="372.058,282.598 358.592,269.133 374.712,253.012 358.592,236.895 372.058,223.429 
		401.641,253.012 	"/>
</g>
<g>
	<rect x="151.373" y="156.39" style="fill:#242D3C;" width="209.254" height="19.041"/>
	<rect x="217.011" y="126.72" style="fill:#242D3C;" width="77.962" height="19.044"/>
</g>
<rect x="112.397" y="331.981" style="fill:#F96232;" width="77.965" height="77.965"/>
<rect x="112.397" y="423.501" style="fill:#242D3C;" width="77.965" height="19.041"/>
<rect x="217.011" y="331.981" style="fill:#F96232;" width="77.962" height="77.965"/>
<rect x="217.011" y="423.501" style="fill:#242D3C;" width="77.962" height="19.041"/>
<rect x="321.638" y="331.981" style="fill:#F96232;" width="77.96" height="77.965"/>
<g>
	<rect x="321.638" y="423.501" style="fill:#242D3C;" width="77.96" height="19.041"/>
	<path style="fill:#242D3C;" d="M447.887,480.481H64.113V88.371h383.775L447.887,480.481L447.887,480.481z M83.156,461.44h345.687
		V107.412H83.156V461.44z"/>
	<path style="fill:#242D3C;" d="M447.887,107.412H64.113V31.519h383.775L447.887,107.412L447.887,107.412z M83.156,88.371h345.687
		V50.56H83.156V88.371z"/>
	<rect x="102.198" y="59.945" style="fill:#242D3C;" width="19.044" height="19.044"/>
	<rect x="140.285" y="59.945" style="fill:#242D3C;" width="19.041" height="19.044"/>
	<rect x="178.381" y="59.945" style="fill:#242D3C;" width="19.044" height="19.044"/>
</g>
<g>
</g>
<g>
</g>
<g>
</g>
<g>
</g>
<g>
</g>
<g>
</g>
<g>
</g>
<g>
</g>
<g>
</g>
<g>
</g>
<g>
</g>
<g>
</g>
<g>
</g>
<g>
</g>
<g>
</g>
</svg>
