<?xml version="1.0" encoding="iso-8859-1"?>
<!-- Generator: Adobe Illustrator 19.0.0, SVG Export Plug-In . SVG Version: 6.00 Build 0)  -->
<svg version="1.1" id="Layer_1" xmlns="http://www.w3.org/2000/svg" xmlns:xlink="http://www.w3.org/1999/xlink" x="0px" y="0px"
	 viewBox="0 0 512 512" style="enable-background:new 0 0 512 512;" xml:space="preserve">
<rect x="87.27" y="155.409" style="fill:#F96232;" width="337.459" height="102.4"/>
<g>
	<rect x="228.685" y="275.455" style="fill:#242D3C;" width="54.61" height="17.068"/>
	<rect x="143.411" y="275.455" style="fill:#242D3C;" width="54.612" height="17.068"/>
	<rect x="313.958" y="275.455" style="fill:#242D3C;" width="54.61" height="17.068"/>
	<rect x="198.042" y="120.677" style="fill:#242D3C;" width="115.942" height="17.068"/>
	<rect x="247.45" y="318.719" style="fill:#242D3C;" width="17.065" height="74.675"/>
	<path style="fill:#242D3C;" d="M303.905,480.667h-95.811v-95.808h95.811V480.667z M225.162,463.597h61.678v-61.668h-61.678V463.597
		z"/>
	<rect x="238.925" y="424.216" style="fill:#242D3C;" width="34.132" height="17.068"/>
	<path style="fill:#242D3C;" d="M512,441.294h-95.811v-95.803H512V441.294z M433.26,424.227h61.67v-61.67h-61.67V424.227z"/>
	<rect x="447.027" y="384.869" style="fill:#242D3C;" width="34.13" height="17.07"/>
	<polygon style="fill:#242D3C;" points="424.727,401.929 351.516,401.929 351.516,318.719 368.581,318.719 368.581,384.859 
		424.727,384.859 	"/>
	<path style="fill:#242D3C;" d="M95.805,441.294H0v-95.803h95.805V441.294z M17.068,424.227H78.74v-61.67H17.068V424.227z"/>
	<rect x="30.848" y="384.869" style="fill:#242D3C;" width="34.132" height="17.07"/>
	<polygon style="fill:#242D3C;" points="160.484,401.929 87.273,401.929 87.273,384.859 143.419,384.859 143.419,318.719 
		160.484,318.719 	"/>
	<path style="fill:#242D3C;" d="M433.26,327.251H78.74V85.966h354.519L433.26,327.251L433.26,327.251z M95.805,310.186h320.384
		V103.034H95.805V310.186z"/>
	<path style="fill:#242D3C;" d="M433.26,103.034H78.74v-71.7h354.519L433.26,103.034L433.26,103.034z M95.805,85.966h320.384V48.398
		H95.805V85.966z"/>
	<rect x="112.87" y="58.648" style="fill:#242D3C;" width="17.068" height="17.07"/>
	<rect x="146.995" y="58.648" style="fill:#242D3C;" width="17.068" height="17.07"/>
	<rect x="181.12" y="58.648" style="fill:#242D3C;" width="17.068" height="17.07"/>
</g>
<g>
</g>
<g>
</g>
<g>
</g>
<g>
</g>
<g>
</g>
<g>
</g>
<g>
</g>
<g>
</g>
<g>
</g>
<g>
</g>
<g>
</g>
<g>
</g>
<g>
</g>
<g>
</g>
<g>
</g>
</svg>
