<?xml version="1.0" encoding="iso-8859-1"?>
<!-- Generator: Adobe Illustrator 19.0.0, SVG Export Plug-In . SVG Version: 6.00 Build 0)  -->
<svg version="1.1" id="Layer_1" xmlns="http://www.w3.org/2000/svg" xmlns:xlink="http://www.w3.org/1999/xlink" x="0px" y="0px"
	 viewBox="0 0 512 512" style="enable-background:new 0 0 512 512;" xml:space="preserve">
<g>
	<path style="fill:#242D3C;" d="M500.375,400.932H11.625V66.337h488.75V400.932z M32.105,380.452h447.793V86.817H32.105V380.452z"/>
	<path style="fill:#242D3C;" d="M500.375,86.817H11.625V0h488.75V86.817z M32.105,66.337h447.793V20.48H32.105V66.337z"/>
	<rect x="52.575" y="33.162" style="fill:#242D3C;" width="20.47" height="20.48"/>
	<rect x="93.519" y="33.162" style="fill:#242D3C;" width="20.475" height="20.48"/>
	<rect x="134.477" y="33.162" style="fill:#242D3C;" width="20.48" height="20.48"/>
</g>
<polygon style="fill:#F96232;" points="255.995,142.559 173.194,225.359 173.194,324.71 235.507,324.71 235.507,279.171 
	276.485,279.171 276.485,324.71 338.788,324.71 338.788,225.359 "/>
<g>
	<polygon style="fill:#242D3C;" points="347.218,248.264 255.995,157.046 164.767,248.264 150.287,233.782 255.995,128.079 
		361.7,233.782 	"/>
	<path style="fill:#242D3C;" d="M256,512c-22.792,0-41.339-18.542-41.339-41.339c0-22.789,18.547-41.334,41.339-41.334
		s41.339,18.545,41.339,41.334C297.339,493.458,278.792,512,256,512z M256,449.802c-11.505,0-20.861,9.357-20.861,20.856
		c0,11.505,9.357,20.859,20.861,20.859c11.505,0,20.859-9.354,20.859-20.859C276.859,459.159,267.505,449.802,256,449.802z"/>
	<rect x="287.104" y="460.416" style="fill:#242D3C;" width="202.135" height="20.48"/>
	<rect x="22.766" y="460.416" style="fill:#242D3C;" width="202.132" height="20.48"/>
	<rect x="245.76" y="390.682" style="fill:#242D3C;" width="20.48" height="48.87"/>
</g>
<g>
</g>
<g>
</g>
<g>
</g>
<g>
</g>
<g>
</g>
<g>
</g>
<g>
</g>
<g>
</g>
<g>
</g>
<g>
</g>
<g>
</g>
<g>
</g>
<g>
</g>
<g>
</g>
<g>
</g>
</svg>
