<?xml version="1.0" encoding="iso-8859-1"?>
<!-- Generator: Adobe Illustrator 19.0.0, SVG Export Plug-In . SVG Version: 6.00 Build 0)  -->
<svg version="1.1" id="Layer_1" xmlns="http://www.w3.org/2000/svg" xmlns:xlink="http://www.w3.org/1999/xlink" x="0px" y="0px"
	 viewBox="0 0 512 512" style="enable-background:new 0 0 512 512;" xml:space="preserve">
<g>
	<polygon style="fill:#242D3C;" points="492.746,396.465 452.969,396.465 452.969,377.526 473.807,377.526 473.807,75.779 
		38.193,75.779 38.193,377.526 59.028,377.526 59.028,396.465 19.254,396.465 19.254,56.84 492.746,56.84 	"/>
	<path style="fill:#242D3C;" d="M492.746,75.756H19.254V0h473.492L492.746,75.756L492.746,75.756z M38.193,56.817h435.615V18.939
		H38.193V56.817z"/>
	<rect x="59.034" y="28.416" style="fill:#242D3C;" width="18.939" height="18.939"/>
	<rect x="96.906" y="28.416" style="fill:#242D3C;" width="18.939" height="18.939"/>
	<rect x="134.784" y="28.416" style="fill:#242D3C;" width="18.939" height="18.939"/>
</g>
<path style="fill:#43D3E8;" d="M59.028,96.591v260.101h50.248c0-0.305-0.026-0.602-0.026-0.909
	c0-81.021,65.7-146.706,146.744-146.706c81.052,0,146.752,65.682,146.752,146.706c0,0.307-0.026,0.604-0.026,0.909h50.248V96.591
	H59.028z"/>
<g>
	<path style="fill:#242D3C;" d="M255.997,512c-86.134,0-156.214-70.08-156.214-156.216c0-86.116,70.08-156.173,156.214-156.173
		c86.139,0,156.221,70.06,156.221,156.173C412.216,441.92,342.134,512,255.997,512z M255.997,218.547
		c-75.692,0-137.275,61.565-137.275,137.234c0,75.697,61.581,137.277,137.275,137.277c75.697,0,137.28-61.581,137.28-137.277
		C393.277,280.113,331.691,218.547,255.997,218.547z"/>
	<rect x="246.528" y="168.584" style="fill:#242D3C;" width="18.944" height="40.494"/>
	<path style="fill:#242D3C;" d="M274.327,196.383h-36.662c-7.444,0-14.431-2.883-19.671-8.125
		c-5.251-5.251-8.138-12.234-8.138-19.676c0-7.444,2.888-14.433,8.138-19.679c5.276-5.245,12.252-8.12,19.671-8.12h36.662
		c7.416,0,14.4,2.875,19.658,8.105c5.263,5.266,8.146,12.252,8.146,19.697c0,7.439-2.883,14.426-8.115,19.666
		C288.76,193.5,281.769,196.383,274.327,196.383z M237.665,159.724c-2.378,0-4.616,0.919-6.3,2.596
		c-1.651,1.651-2.565,3.881-2.565,6.267c0,2.383,0.919,4.616,2.586,6.282c1.659,1.659,3.894,2.578,6.28,2.578h36.662
		c2.391,0,4.623-0.919,6.287-2.583c1.656-1.659,2.578-3.894,2.578-6.28c0-2.386-0.919-4.623-2.578-6.287
		c-1.667-1.651-3.907-2.573-6.287-2.573C274.327,159.723,237.665,159.723,237.665,159.724z"/>
	<path style="fill:#242D3C;" d="M388.111,257.851l-13.425-13.361l8.589-8.637l0.018-0.471l-6.897-6.902l-7.15-6.694l6.7,6.692
		l-8.609,8.627l-13.404-13.376l8.614-8.632c3.651-3.64,8.489-5.645,13.655-5.645c5.197,0,10.048,2.025,13.655,5.701l6.833,6.835
		c3.658,3.663,5.681,8.504,5.681,13.635s-2.022,9.964-5.699,13.622L388.111,257.851z"/>
	<path style="fill:#242D3C;" d="M123.937,257.866l-8.637-8.637c-3.645-3.653-5.658-8.466-5.676-13.565
		c0.018-5.194,2.03-10.02,5.658-13.66l6.922-6.917c3.576-3.62,8.42-5.637,13.591-5.637c5.156,0,9.997,1.999,13.635,5.627
		l8.648,8.632l-13.379,13.409l-8.648-8.635l-0.02,0.018l-0.438-0.018l-6.909,6.899l-6.692,7.148l6.694-6.7l8.64,8.64
		L123.937,257.866z"/>
</g>
<path style="fill:#F96232;" d="M255.997,233.539v103.908c10.104,0,18.322,8.233,18.322,18.335h103.977
	C378.294,288.264,323.556,233.539,255.997,233.539z"/>
<g>
	
		<rect x="303.36" y="248.773" transform="matrix(-0.867 -0.4983 0.4983 -0.867 455.834 636.2912)" style="fill:#242D3C;" width="18.939" height="17.083"/>
	<rect x="246.528" y="233.549" style="fill:#242D3C;" width="18.944" height="17.098"/>
	
		<rect x="190.559" y="247.866" transform="matrix(-0.501 -0.8655 0.8655 -0.501 76.1597 558.583)" style="fill:#242D3C;" width="17.119" height="18.937"/>
	
		<rect x="148.949" y="289.498" transform="matrix(-0.867 -0.4984 0.4984 -0.867 145.0517 636.6595)" style="fill:#242D3C;" width="17.107" height="18.942"/>
	<rect x="133.734" y="346.317" style="fill:#242D3C;" width="17.114" height="18.939"/>
	
		<rect x="148.025" y="404.1" transform="matrix(-0.5005 -0.8658 0.8658 -0.5005 -120.9503 755.5413)" style="fill:#242D3C;" width="18.937" height="17.127"/>
	
		<rect x="189.653" y="445.696" transform="matrix(-0.8657 -0.5006 0.5006 -0.8657 144.1013 947.189)" style="fill:#242D3C;" width="18.939" height="17.132"/>
	<rect x="246.528" y="460.954" style="fill:#242D3C;" width="18.939" height="17.139"/>
	
		<rect x="304.28" y="444.786" transform="matrix(-0.4978 -0.8673 0.8673 -0.4978 74.5807 951.6989)" style="fill:#242D3C;" width="17.098" height="18.942"/>
	
		<rect x="345.878" y="403.202" transform="matrix(-0.8666 -0.4991 0.4991 -0.8666 455.6779 947.1879)" style="fill:#242D3C;" width="17.178" height="18.945"/>
	<rect x="361.165" y="346.317" style="fill:#242D3C;" width="17.134" height="18.939"/>
	
		<rect x="344.988" y="290.368" transform="matrix(-0.4967 -0.8679 0.8679 -0.4967 271.0692 755.0678)" style="fill:#242D3C;" width="18.944" height="17.144"/>
	<path style="fill:#242D3C;" d="M255.997,383.613c-15.327,0-27.796-12.485-27.796-27.83c0-15.329,12.47-27.804,27.796-27.804
		s27.791,12.475,27.791,27.804C283.786,371.128,271.322,383.613,255.997,383.613z M255.997,346.918
		c-4.884,0-8.858,3.978-8.858,8.865c0,4.905,3.973,8.893,8.858,8.893c4.879,0,8.852-3.988,8.852-8.893
		C264.847,350.894,260.874,346.918,255.997,346.918z"/>
	<rect x="274.33" y="346.317" style="fill:#242D3C;" width="46.515" height="18.939"/>
</g>
<g>
</g>
<g>
</g>
<g>
</g>
<g>
</g>
<g>
</g>
<g>
</g>
<g>
</g>
<g>
</g>
<g>
</g>
<g>
</g>
<g>
</g>
<g>
</g>
<g>
</g>
<g>
</g>
<g>
</g>
</svg>
