<?xml version="1.0" encoding="iso-8859-1"?>
<!-- Generator: Adobe Illustrator 19.0.0, SVG Export Plug-In . SVG Version: 6.00 Build 0)  -->
<svg version="1.1" id="Layer_1" xmlns="http://www.w3.org/2000/svg" xmlns:xlink="http://www.w3.org/1999/xlink" x="0px" y="0px"
	 viewBox="0 0 512 512" style="enable-background:new 0 0 512 512;" xml:space="preserve">
<g>
	<path style="fill:#242D3C;" d="M481.999,512H30.001V57.454h451.999L481.999,512L481.999,512z M49.152,492.849h413.691V76.605
		H49.152V492.849z"/>
	<path style="fill:#242D3C;" d="M481.999,76.605H30.001V0h451.999L481.999,76.605L481.999,76.605z M49.152,57.454h413.691V19.151
		H49.152V57.454z"/>
	<rect x="70.223" y="28.728" style="fill:#242D3C;" width="19.151" height="19.151"/>
	<rect x="108.518" y="28.728" style="fill:#242D3C;" width="19.151" height="19.151"/>
	<rect x="146.816" y="28.728" style="fill:#242D3C;" width="19.156" height="19.151"/>
</g>
<rect x="70.223" y="97.69" style="fill:#43D3E8;" width="371.558" height="374.093"/>
<g>
	<path style="fill:#242D3C;" d="M275.607,423.823c-2.511,0-4.925-1.239-6.374-3.412l-19.517-29.271v32.684h-15.322v-57.979
		c0-3.372,2.212-6.356,5.44-7.329c3.236-0.973,6.72,0.266,8.594,3.08l19.517,29.271v-32.684h15.324v57.979
		c0,3.377-2.212,6.356-5.437,7.334C277.092,423.716,276.347,423.823,275.607,423.823z"/>
	<rect x="365.235" y="358.17" style="fill:#242D3C;" width="15.322" height="65.644"/>
	<rect x="348.467" y="358.17" style="fill:#242D3C;" width="48.87" height="15.322"/>
	<path style="fill:#242D3C;" d="M340.298,423.823h-41.211c-4.232,0-7.662-3.43-7.662-7.662v-50.317c0-4.232,3.43-7.662,7.662-7.662
		h41.211v15.322h-33.551v34.998h33.551L340.298,423.823L340.298,423.823z"/>
	<rect x="291.43" y="383.334" style="fill:#242D3C;" width="32.095" height="15.316"/>
	<rect x="206.976" y="408.499" style="fill:#242D3C;" width="15.314" height="15.322"/>
	<path style="fill:#242D3C;" d="M320.061,290.624H299.1c-4.229,0-7.662-3.433-7.662-7.662v-25.17c0-4.229,3.433-7.662,7.662-7.662
		h20.961c5.407,0,10.493,2.112,14.318,5.937c3.82,3.812,5.926,8.891,5.926,14.31c0,5.417-2.107,10.499-5.942,14.318
		C330.545,288.517,325.46,290.624,320.061,290.624z M306.76,275.302h13.302c1.308,0,2.547-0.517,3.484-1.449
		c0.927-0.924,1.436-2.161,1.436-3.471c0-1.316-0.507-2.55-1.436-3.469c-0.937-0.942-2.173-1.454-3.484-1.454H306.76V275.302z"/>
	<path style="fill:#242D3C;" d="M340.308,315.779h-15.324v-20.244c0-1.311-0.507-2.542-1.436-3.466
		c-0.934-0.929-2.168-1.441-3.484-1.441h-13.302v25.152h-15.322v-32.814c0-4.232,3.433-7.66,7.662-7.66h20.961
		c5.402,0,10.483,2.102,14.308,5.921c3.83,3.814,5.937,8.896,5.937,14.31L340.308,315.779L340.308,315.779z"/>
	<path style="fill:#242D3C;" d="M377.078,315.779h-8.392c-5.402,0-10.488-2.102-14.308-5.921c-3.825-3.832-5.921-8.917-5.921-14.323
		v-25.152c0-5.402,2.097-10.483,5.911-14.305c3.827-3.83,8.909-5.942,14.321-5.942h8.392c5.412,0,10.499,2.112,14.318,5.942
		c3.814,3.799,5.921,8.886,5.921,14.305h-15.322c0-1.321-0.507-2.55-1.434-3.469c-0.942-0.947-2.173-1.454-3.484-1.454h-8.392
		c-1.316,0-2.55,0.512-3.474,1.441c-0.919,0.927-1.434,2.163-1.434,3.482v25.152c0,1.324,0.512,2.56,1.439,3.494
		c0.919,0.914,2.155,1.428,3.469,1.428h8.392c1.313,0,2.547-0.507,3.477-1.439c0.932-0.932,1.441-2.168,1.441-3.484v-1.078h-9.108
		v-15.324h16.771c4.232,0,7.66,3.433,7.66,7.662v8.74c0,5.425-2.107,10.514-5.944,14.331
		C387.566,313.674,382.482,315.779,377.078,315.779z"/>
	<path style="fill:#242D3C;" d="M263.032,315.779h-8.387c-5.402,0-10.483-2.102-14.308-5.921c-3.83-3.82-5.932-8.906-5.932-14.323
		v-25.152c0-5.414,2.104-10.496,5.932-14.316c3.814-3.82,8.901-5.932,14.308-5.932h8.387c5.417,0,10.504,2.112,14.318,5.942
		c3.809,3.807,5.921,8.886,5.921,14.305v25.152c0,5.422-2.109,10.506-5.929,14.323C273.526,313.674,268.439,315.779,263.032,315.779
		z M254.646,265.454c-1.313,0-2.547,0.512-3.476,1.441c-0.934,0.932-1.441,2.163-1.441,3.482v25.152
		c0,1.318,0.507,2.552,1.439,3.479c0.929,0.929,2.163,1.441,3.479,1.441h8.387c1.318,0,2.552-0.507,3.477-1.439
		c0.927-0.927,1.436-2.163,1.436-3.484v-25.152c0-1.321-0.507-2.55-1.434-3.474c-0.932-0.942-2.168-1.449-3.479-1.449h-8.387
		V265.454z"/>
	<rect x="206.976" y="300.442" style="fill:#242D3C;" width="15.314" height="15.322"/>
	<path style="fill:#242D3C;" d="M316.183,207.731h-8.384c-5.394,0-10.476-2.099-14.303-5.916c-3.832-3.83-5.937-8.909-5.937-14.321
		v-25.162c0-5.402,2.099-10.488,5.916-14.313c3.85-3.832,8.929-5.932,14.326-5.932h8.384c5.412,0,10.493,2.104,14.316,5.919
		c3.825,3.845,5.924,8.922,5.924,14.326v25.162c0,5.407-2.099,10.488-5.916,14.308C326.674,205.627,321.595,207.731,316.183,207.731
		z M307.796,157.412c-1.313,0-2.555,0.517-3.492,1.444c-0.911,0.911-1.426,2.156-1.426,3.476v25.162
		c0,1.321,0.507,2.555,1.434,3.476c0.929,0.919,2.173,1.436,3.484,1.436h8.384c1.321,0,2.56-0.512,3.492-1.436
		c0.917-0.922,1.426-2.156,1.426-3.476v-25.162c0-1.321-0.512-2.563-1.441-3.497c-0.914-0.911-2.156-1.423-3.474-1.423
		C316.183,157.412,307.796,157.412,307.796,157.412z"/>
	<path style="fill:#242D3C;" d="M259.156,207.731h-8.397c-5.402,0-10.488-2.104-14.308-5.924c-3.82-3.825-5.926-8.909-5.926-14.313
		v-25.162c0-5.402,2.104-10.478,5.924-14.313c3.825-3.827,8.909-5.932,14.31-5.932h8.397c5.407,0,10.488,2.107,14.303,5.926
		c3.83,3.82,5.937,8.909,5.937,14.316v7.662h-15.322v-7.662c0-1.313-0.512-2.552-1.444-3.484c-0.934-0.929-2.166-1.439-3.471-1.439
		h-8.397c-1.311,0-2.547,0.507-3.471,1.439c-0.924,0.929-1.441,2.168-1.441,3.484v25.162c0,1.313,0.512,2.547,1.441,3.476
		c0.924,0.929,2.161,1.436,3.471,1.436h8.397c1.308,0,2.537-0.507,3.464-1.434c0.942-0.942,1.454-2.173,1.454-3.479v-7.662h15.322
		v7.662c0,5.417-2.112,10.501-5.949,14.321C269.645,205.627,264.566,207.731,259.156,207.731z"/>
	<path style="fill:#242D3C;" d="M401.846,207.731h-15.319v-36.826l-7.424,8.909c-1.457,1.746-3.612,2.755-5.885,2.755l0,0
		c-2.276,0-4.429-1.009-5.885-2.755l-7.419-8.906v36.82h-15.322V149.75c0-3.226,2.017-6.103,5.056-7.204
		c3.023-1.093,6.426-0.182,8.489,2.301l15.084,18.097l15.089-18.097c2.068-2.483,5.463-3.395,8.489-2.301
		c3.036,1.101,5.053,3.978,5.053,7.204v57.981H401.846z"/>
	<rect x="207.296" y="192.41" style="fill:#242D3C;" width="15.309" height="15.324"/>
</g>
<rect x="117.811" y="145.633" style="fill:#FFFFFF;" width="57.459" height="57.459"/>
<rect x="136.96" y="164.787" style="fill:#242D3C;" width="19.151" height="19.154"/>
<g>
	<rect x="117.811" y="253.67" style="fill:#FFFFFF;" width="57.459" height="57.454"/>
	<rect x="117.811" y="361.728" style="fill:#FFFFFF;" width="57.459" height="57.457"/>
</g>
<g>
</g>
<g>
</g>
<g>
</g>
<g>
</g>
<g>
</g>
<g>
</g>
<g>
</g>
<g>
</g>
<g>
</g>
<g>
</g>
<g>
</g>
<g>
</g>
<g>
</g>
<g>
</g>
<g>
</g>
</svg>
