<?xml version="1.0" encoding="iso-8859-1"?>
<!-- Generator: Adobe Illustrator 19.0.0, SVG Export Plug-In . SVG Version: 6.00 Build 0)  -->
<svg version="1.1" id="Layer_1" xmlns="http://www.w3.org/2000/svg" xmlns:xlink="http://www.w3.org/1999/xlink" x="0px" y="0px"
	 viewBox="0 0 512 512" style="enable-background:new 0 0 512 512;" xml:space="preserve">
<g>
	<rect x="174.669" y="202.598" style="fill:#242D3C;" width="18.967" height="20.869"/>
	<rect x="208.998" y="171.802" style="fill:#242D3C;" width="18.967" height="51.661"/>
	<rect x="243.354" y="185.114" style="fill:#242D3C;" width="18.962" height="38.349"/>
	<rect x="277.709" y="146.304" style="fill:#242D3C;" width="18.962" height="77.158"/>
	<rect x="312.038" y="157.133" style="fill:#242D3C;" width="18.962" height="66.335"/>
	<rect x="346.368" y="103.995" style="fill:#242D3C;" width="18.962" height="119.473"/>
	<rect x="380.698" y="124.626" style="fill:#242D3C;" width="18.962" height="98.842"/>
	<rect x="298.189" y="349.312" style="fill:#242D3C;" width="101.473" height="18.962"/>
	<rect x="298.189" y="383.923" style="fill:#242D3C;" width="101.473" height="18.962"/>
	<rect x="174.669" y="349.312" style="fill:#242D3C;" width="101.507" height="18.962"/>
	<rect x="174.669" y="383.923" style="fill:#242D3C;" width="101.507" height="18.962"/>
	<rect x="298.189" y="314.675" style="fill:#242D3C;" width="101.473" height="18.962"/>
	<rect x="174.669" y="314.675" style="fill:#242D3C;" width="101.507" height="18.962"/>
</g>
<rect x="174.669" y="241.638" style="fill:#F96232;" width="224.998" height="55.035"/>
<g>
	<path style="fill:#242D3C;" d="M452.429,449.636H121.925V55.26h330.504V449.636z M140.89,430.671h292.58V74.222H140.89V430.671z"/>
	<path style="fill:#242D3C;" d="M452.429,74.222H121.925V0h330.504V74.222z M140.89,55.26h292.58V18.962H140.89V55.26z"/>
	<rect x="159.846" y="27.328" style="fill:#242D3C;" width="18.985" height="18.962"/>
	<rect x="197.811" y="27.328" style="fill:#242D3C;" width="18.957" height="18.962"/>
	<rect x="235.725" y="27.328" style="fill:#242D3C;" width="18.962" height="18.962"/>
	<polygon style="fill:#242D3C;" points="390.065,512 59.571,512 59.571,127.114 78.533,127.114 78.533,493.038 371.103,493.038 
		371.103,465.851 390.065,465.851 	"/>
	<polygon style="fill:#242D3C;" points="105.728,136.594 59.571,136.594 59.571,62.356 105.728,62.356 105.728,81.324 
		78.533,81.324 78.533,117.632 105.728,117.632 	"/>
</g>
<g>
</g>
<g>
</g>
<g>
</g>
<g>
</g>
<g>
</g>
<g>
</g>
<g>
</g>
<g>
</g>
<g>
</g>
<g>
</g>
<g>
</g>
<g>
</g>
<g>
</g>
<g>
</g>
<g>
</g>
</svg>
