<?xml version="1.0" encoding="iso-8859-1"?>
<!-- Generator: Adobe Illustrator 19.0.0, SVG Export Plug-In . SVG Version: 6.00 Build 0)  -->
<svg version="1.1" id="Layer_1" xmlns="http://www.w3.org/2000/svg" xmlns:xlink="http://www.w3.org/1999/xlink" x="0px" y="0px"
	 viewBox="0 0 512 512" style="enable-background:new 0 0 512 512;" xml:space="preserve">
<g>
	<polygon style="fill:#43D3E8;" points="305.152,290.127 206.848,290.127 10.24,87.936 108.544,87.936 	"/>
	<polygon style="fill:#43D3E8;" points="206.848,290.127 305.152,290.127 501.76,87.936 403.456,87.936 	"/>
</g>
<path style="fill:#F96232;" d="M327.68,383.104c0,39.583-32.1,71.68-71.68,71.68s-71.68-32.097-71.68-71.68
	c0-39.58,32.1-71.68,71.68-71.68S327.68,343.524,327.68,383.104z"/>
<g>
	<rect x="231.424" y="403.584" style="fill:#FFFFFF;" width="49.152" height="20.48"/>
	<polygon style="fill:#FFFFFF;" points="266.24,413.824 245.76,413.824 245.76,362.624 231.424,362.624 231.424,342.144 
		266.24,342.144 	"/>
</g>
<g>
	<path style="fill:#242D3C;" d="M256,495.744c-62.113,0-112.64-50.532-112.64-112.64c0-62.113,50.527-112.64,112.64-112.64
		s112.64,50.527,112.64,112.64C368.64,445.212,318.113,495.744,256,495.744z M256,290.944c-50.816,0-92.16,41.339-92.16,92.16
		c0,50.816,41.344,92.16,92.16,92.16s92.16-41.344,92.16-92.16C348.16,332.285,306.816,290.944,256,290.944z"/>
	<polygon style="fill:#242D3C;" points="512,444.966 385.208,444.966 385.208,424.486 491.52,424.486 491.52,98.176 20.48,98.176 
		20.48,424.486 126.792,424.486 126.792,444.966 0,444.966 0,77.696 512,77.696 	"/>
	<path style="fill:#242D3C;" d="M512,98.176H0v-81.92h512V98.176z M20.48,77.696h471.04v-40.96H20.48V77.696z"/>
	<rect x="43.008" y="46.976" style="fill:#242D3C;" width="20.48" height="20.48"/>
	<rect x="83.968" y="46.976" style="fill:#242D3C;" width="20.48" height="20.48"/>
	<rect x="124.928" y="46.976" style="fill:#242D3C;" width="20.48" height="20.48"/>
</g>
<g>
</g>
<g>
</g>
<g>
</g>
<g>
</g>
<g>
</g>
<g>
</g>
<g>
</g>
<g>
</g>
<g>
</g>
<g>
</g>
<g>
</g>
<g>
</g>
<g>
</g>
<g>
</g>
<g>
</g>
</svg>
