<?xml version="1.0" encoding="iso-8859-1"?>
<!-- Generator: Adobe Illustrator 19.0.0, SVG Export Plug-In . SVG Version: 6.00 Build 0)  -->
<svg version="1.1" id="Layer_1" xmlns="http://www.w3.org/2000/svg" xmlns:xlink="http://www.w3.org/1999/xlink" x="0px" y="0px"
	 viewBox="0 0 512 512" style="enable-background:new 0 0 512 512;" xml:space="preserve">
<g>
	<path style="fill:#242D3C;" d="M512,470.355H0V103.082h512V470.355z M20.48,449.878h471.04V123.562H20.48V449.878z"/>
	<path style="fill:#242D3C;" d="M512,123.562H0V41.645h512V123.562z M20.48,103.082h471.04V62.125H20.48V103.082z"/>
	<rect x="43.011" y="72.372" style="fill:#242D3C;" width="20.48" height="20.48"/>
	<rect x="83.968" y="72.372" style="fill:#242D3C;" width="20.48" height="20.48"/>
	<rect x="124.928" y="72.372" style="fill:#242D3C;" width="20.48" height="20.48"/>
</g>
<rect x="43.011" y="146.1" style="fill:#43D3E8;" width="425.984" height="281.242"/>
<rect x="174.08" y="340.66" style="fill:#FFFFFF;" width="163.84" height="57.341"/>
<path style="fill:#242D3C;" d="M129.708,232.795H72.364v-57.344h57.344V232.795z M92.846,212.315h16.381v-16.384H92.846
	C92.846,195.931,92.846,212.315,92.846,212.315z"/>
<rect x="129.708" y="175.438" style="fill:#FFFFFF;" width="309.939" height="57.344"/>
<g>
	<rect x="174.08" y="193.87" style="fill:#242D3C;" width="163.84" height="20.48"/>
	<path style="fill:#242D3C;" d="M129.708,315.396H72.364v-57.344h57.344V315.396z M92.846,294.916h16.381v-16.379H92.846
		C92.846,278.537,92.846,294.916,92.846,294.916z"/>
</g>
<rect x="129.708" y="258.049" style="fill:#FFFFFF;" width="309.939" height="57.344"/>
<g>
	<rect x="174.08" y="276.481" style="fill:#242D3C;" width="20.48" height="20.48"/>
	<rect x="209.917" y="276.481" style="fill:#242D3C;" width="20.48" height="20.48"/>
	<rect x="245.76" y="276.481" style="fill:#242D3C;" width="20.48" height="20.48"/>
	<rect x="281.6" y="276.481" style="fill:#242D3C;" width="20.477" height="20.48"/>
	<rect x="317.44" y="276.481" style="fill:#242D3C;" width="20.48" height="20.48"/>
</g>
<g>
</g>
<g>
</g>
<g>
</g>
<g>
</g>
<g>
</g>
<g>
</g>
<g>
</g>
<g>
</g>
<g>
</g>
<g>
</g>
<g>
</g>
<g>
</g>
<g>
</g>
<g>
</g>
<g>
</g>
</svg>
