<?xml version="1.0" encoding="iso-8859-1"?>
<!-- Generator: Adobe Illustrator 19.0.0, SVG Export Plug-In . SVG Version: 6.00 Build 0)  -->
<svg version="1.1" id="Layer_1" xmlns="http://www.w3.org/2000/svg" xmlns:xlink="http://www.w3.org/1999/xlink" x="0px" y="0px"
	 viewBox="0 0 512 512" style="enable-background:new 0 0 512 512;" xml:space="preserve">
<circle style="fill:#F96232;" cx="416.947" cy="401.54" r="95.053"/>
<g>
	<polygon style="fill:#FFFFFF;" points="382.633,434.556 349.632,401.553 382.638,368.554 394.506,380.42 373.379,401.553 
		394.509,422.685 	"/>
	<polygon style="fill:#FFFFFF;" points="451.264,434.556 439.396,422.685 460.526,401.553 439.396,380.42 451.264,368.554 
		484.262,401.553 	"/>
	
		<rect x="408.55" y="356.213" transform="matrix(-0.962 -0.273 0.273 -0.962 708.4333 901.6469)" style="fill:#FFFFFF;" width="16.793" height="90.646"/>
</g>
<g>
	<rect x="204.672" y="186.63" style="fill:#242D3C;" width="45.266" height="16.786"/>
	<rect x="249.933" y="244.202" style="fill:#242D3C;" width="48.691" height="16.786"/>
	<rect x="249.933" y="272.977" style="fill:#242D3C;" width="48.691" height="16.788"/>
	<rect x="249.933" y="359.325" style="fill:#242D3C;" width="48.691" height="16.788"/>
	<rect x="249.933" y="388.1" style="fill:#242D3C;" width="48.691" height="16.788"/>
	<rect x="204.672" y="215.402" style="fill:#242D3C;" width="93.942" height="16.786"/>
	<rect x="204.672" y="301.751" style="fill:#242D3C;" width="45.266" height="16.786"/>
	<rect x="204.672" y="330.525" style="fill:#242D3C;" width="93.942" height="16.786"/>
	<rect x="317.645" y="244.202" style="fill:#242D3C;" width="48.691" height="16.786"/>
	<rect x="317.645" y="272.977" style="fill:#242D3C;" width="93.957" height="16.788"/>
	<rect x="317.645" y="215.402" style="fill:#242D3C;" width="48.691" height="16.786"/>
	<path style="fill:#242D3C;" d="M459.243,162.006h-302.2V94.857h302.198v67.149H459.243z M173.829,145.215h268.626v-33.572H173.829
		V145.215z"/>
	<rect x="190.618" y="120.04" style="fill:#242D3C;" width="16.791" height="16.786"/>
	<rect x="224.179" y="120.04" style="fill:#242D3C;" width="16.794" height="16.786"/>
	<rect x="257.766" y="120.04" style="fill:#242D3C;" width="16.794" height="16.786"/>
	<polygon style="fill:#242D3C;" points="298.614,446.294 157.043,446.294 157.043,145.215 459.243,145.215 459.243,289.289 
		442.455,289.289 442.455,162.006 173.829,162.006 173.829,429.508 298.614,429.508 	"/>
	<path style="fill:#242D3C;" d="M83.284,488.403c-16.858,0-30.569-13.716-30.569-30.574s13.711-30.572,30.569-30.572
		s30.572,13.714,30.572,30.572C113.856,474.687,100.142,488.403,83.284,488.403z M83.284,444.043
		c-7.603,0-13.786,6.182-13.786,13.786c0,7.601,6.182,13.786,13.786,13.786c7.601,0,13.786-6.185,13.786-13.786
		C97.07,450.226,90.885,444.043,83.284,444.043z"/>
	<rect x="122.355" y="427.268" style="fill:#242D3C;" width="16.786" height="61.148"/>
	<path style="fill:#242D3C;" d="M395.016,76.545c-16.863,0-30.569-13.709-30.569-30.572c0-16.855,13.706-30.566,30.569-30.566
		c16.855,0,30.566,13.711,30.566,30.566C425.582,62.836,411.871,76.545,395.016,76.545z M395.016,32.193
		c-7.601,0-13.786,6.185-13.786,13.78c0,7.601,6.185,13.786,13.786,13.786c7.598,0,13.783-6.185,13.783-13.786
		C408.799,38.378,402.614,32.193,395.016,32.193z"/>
	<rect x="339.149" y="15.415" style="fill:#242D3C;" width="16.786" height="61.138"/>
	<rect x="313.882" y="15.415" style="fill:#242D3C;" width="16.788" height="61.138"/>
	<path style="fill:#242D3C;" d="M109.775,338.733h-8.394v-16.788h8.394c1.989,0,3.858-0.778,5.263-2.184
		c1.411-1.411,2.186-3.279,2.186-5.268v-63.36c0-1.992-0.776-3.866-2.186-5.271c-1.403-1.405-3.274-2.181-5.263-2.181h-8.394
		v-16.786h8.394c6.469,0,12.554,2.519,17.132,7.094c4.585,4.582,7.104,10.668,7.104,17.144v63.363
		c0,6.472-2.519,12.554-7.104,17.132C122.34,336.206,116.255,338.733,109.775,338.733z"/>
	<path style="fill:#242D3C;" d="M32.627,338.733h-8.394c-6.472,0-12.559-2.522-17.139-7.104C2.516,327.044,0,320.961,0,314.497
		v-63.365c0-6.469,2.516-12.557,7.089-17.137c4.593-4.582,10.675-7.099,17.144-7.099h8.394v16.786h-8.394
		c-1.992,0-3.866,0.773-5.276,2.184c-1.398,1.403-2.171,3.277-2.171,5.268v63.363c0,1.987,0.773,3.858,2.184,5.271
		c1.405,1.403,3.274,2.181,5.263,2.181h8.394V338.733z"/>
	<rect x="26.811" y="274.41" style="fill:#242D3C;" width="16.791" height="16.788"/>
	<rect x="57.027" y="274.41" style="fill:#242D3C;" width="16.791" height="16.788"/>
	<rect x="87.245" y="274.41" style="fill:#242D3C;" width="16.791" height="16.788"/>
</g>
<g>
</g>
<g>
</g>
<g>
</g>
<g>
</g>
<g>
</g>
<g>
</g>
<g>
</g>
<g>
</g>
<g>
</g>
<g>
</g>
<g>
</g>
<g>
</g>
<g>
</g>
<g>
</g>
<g>
</g>
</svg>
