<?xml version="1.0" encoding="iso-8859-1"?>
<!-- Generator: Adobe Illustrator 19.0.0, SVG Export Plug-In . SVG Version: 6.00 Build 0)  -->
<svg version="1.1" id="Layer_1" xmlns="http://www.w3.org/2000/svg" xmlns:xlink="http://www.w3.org/1999/xlink" x="0px" y="0px"
	 viewBox="0 0 512 512" style="enable-background:new 0 0 512 512;" xml:space="preserve">
<g>
	<polygon style="fill:#242D3C;" points="319.923,436.479 216.21,436.479 216.21,394.963 232.819,394.963 232.819,419.869 
		303.311,419.869 303.311,394.963 319.923,394.963 	"/>
	<rect x="196.634" y="419.864" style="fill:#242D3C;" width="142.848" height="16.609"/>
	<path style="fill:#242D3C;" d="M458.675,237.848h-16.609V96.69c0-1.201-0.484-2.35-1.375-3.238
		c-1.139-1.149-2.491-1.321-3.195-1.321H98.642c-0.868,0-2.138,0.236-3.249,1.341c-0.832,0.837-1.311,1.992-1.311,3.215V207.72
		H77.473V96.69c0-5.642,2.189-10.954,6.167-14.958c4.04-4.017,9.357-6.211,15.002-6.211h338.854c5.673,0,10.99,2.209,14.971,6.211
		c4.001,4.012,6.211,9.329,6.211,14.958v141.158H458.675z"/>
</g>
<g>
	<path style="fill:#F96232;" d="M397.025,251.424c0-7.47,6.126-13.578,13.586-13.578h9.861v-39.373h-61.732v102.566h38.287v-49.615
		H397.025z"/>
	<rect x="277.709" y="198.476" style="fill:#F96232;" width="61.722" height="102.554"/>
	<rect x="196.685" y="198.476" style="fill:#F96232;" width="61.722" height="102.554"/>
	<rect x="115.686" y="113.842" style="fill:#F96232;" width="304.794" height="64.486"/>
</g>
<g>
	<polygon style="fill:#242D3C;" points="405.33,381.989 169.103,381.989 169.103,365.375 388.721,365.375 388.721,339.117 
		169.103,339.117 169.103,322.505 405.33,322.505 	"/>
	<rect x="431.309" y="393.292" style="fill:#242D3C;" width="38.08" height="16.609"/>
	<path style="fill:#242D3C;" d="M490.115,436.479h-79.506c-12.07,0-21.891-9.812-21.891-21.873V251.424
		c0-12.065,9.82-21.883,21.891-21.883h79.506c12.065,0,21.885,9.815,21.885,21.883v163.182
		C512,426.666,502.18,436.479,490.115,436.479z M410.611,246.153c-2.862,0-5.281,2.414-5.281,5.274v163.182
		c0,2.852,2.417,5.263,5.281,5.263h79.506c2.906,0,5.274-2.363,5.274-5.263V251.424c0-2.906-2.368-5.274-5.274-5.274h-79.506
		V246.153z"/>
</g>
<g>
	<rect x="420.275" y="261.093" style="fill:#F96232;" width="60.157" height="49.864"/>
	<rect x="420.275" y="357.938" style="fill:#F96232;" width="60.157" height="20.403"/>
	<rect x="420.275" y="324.248" style="fill:#F96232;" width="60.157" height="20.398"/>
</g>
<g>
	<rect x="62.728" y="393.292" style="fill:#242D3C;" width="51.942" height="16.609"/>
	<path style="fill:#242D3C;" d="M148.626,436.479H28.787C12.913,436.479,0,423.576,0,407.72V228.205
		c0-15.872,12.913-28.787,28.787-28.787h119.839c15.872,0,28.785,12.915,28.785,28.787V407.72
		C177.408,423.576,164.495,436.479,148.626,436.479z M28.787,216.027c-6.712,0-12.178,5.46-12.178,12.178V407.72
		c0,6.702,5.466,12.15,12.178,12.15h119.839c6.712,0,12.17-5.448,12.17-12.15V228.205c0-6.717-5.458-12.178-12.17-12.178H28.787z"/>
</g>
<g>
	<rect x="95.334" y="299.493" style="fill:#F96232;" width="47.181" height="75.525"/>
	<rect x="34.883" y="299.493" style="fill:#F96232;" width="47.171" height="75.525"/>
	<rect x="34.883" y="234.29" style="fill:#F96232;" width="107.648" height="51.904"/>
</g>
<g>
</g>
<g>
</g>
<g>
</g>
<g>
</g>
<g>
</g>
<g>
</g>
<g>
</g>
<g>
</g>
<g>
</g>
<g>
</g>
<g>
</g>
<g>
</g>
<g>
</g>
<g>
</g>
<g>
</g>
</svg>
