<?xml version="1.0" encoding="iso-8859-1"?>
<!-- Generator: Adobe Illustrator 19.0.0, SVG Export Plug-In . SVG Version: 6.00 Build 0)  -->
<svg version="1.1" id="Layer_1" xmlns="http://www.w3.org/2000/svg" xmlns:xlink="http://www.w3.org/1999/xlink" x="0px" y="0px"
	 viewBox="0 0 512 512" style="enable-background:new 0 0 512 512;" xml:space="preserve">
<g>
	<polygon style="fill:#242D3C;" points="329.743,512 182.259,512 182.259,462.843 200.558,462.843 200.558,493.701 311.442,493.701 
		311.442,462.843 329.743,462.843 	"/>
	<rect x="154.547" y="493.696" style="fill:#242D3C;" width="202.906" height="18.299"/>
	<path style="fill:#242D3C;" d="M484.746,394.706H27.254V108.943c0-6.572,2.563-12.756,7.219-17.413
		c4.654-4.657,10.852-7.219,17.449-7.219h88.689v18.299H51.924c-1.208,0-2.975,0.323-4.511,1.859
		c-1.198,1.198-1.859,2.788-1.859,4.475v267.461h420.89V108.943c0-1.661-0.673-3.254-1.894-4.475
		c-1.201-1.211-2.762-1.859-4.436-1.859h-88.724V84.311h88.724c6.605,0,12.79,2.575,17.416,7.258
		c4.641,4.639,7.217,10.824,7.217,17.375L484.746,394.706L484.746,394.706z"/>
	<path style="fill:#242D3C;" d="M460.099,446.356h-408.2c-6.625,0-12.82-2.573-17.449-7.247c-4.621-4.582-7.196-10.78-7.196-17.393
		v-45.312h457.49v45.312c0,6.597-2.58,12.795-7.263,17.449C472.906,443.786,466.719,446.356,460.099,446.356z M45.555,394.706
		v27.013c0,1.695,0.653,3.282,1.843,4.46c1.623,1.646,3.515,1.879,4.5,1.879h408.2c0.983,0,2.867-0.236,4.434-1.823
		c1.252-1.242,1.912-2.829,1.912-4.518v-27.013H45.555V394.706z"/>
	<rect x="221.133" y="84.311" style="fill:#242D3C;" width="69.734" height="18.299"/>
</g>
<g>
	<rect x="371.379" y="130.061" style="fill:#43D3E8;" width="67.615" height="218.906"/>
	<rect x="221.133" y="130.061" style="fill:#43D3E8;" width="69.76" height="218.906"/>
	<polygon style="fill:#43D3E8;" points="73.011,130.061 73.011,348.956 133.391,348.956 140.613,130.061 	"/>
</g>
<polygon style="fill:#F96232;" points="221.123,348.956 221.13,88.036 180.872,128.287 140.621,88.036 140.613,348.956 "/>
<g>
	<polygon style="fill:#242D3C;" points="160.742,53.148 201.001,53.148 180.864,18.304 	"/>
	<rect x="171.725" y="128.282" style="fill:#242D3C;" width="18.299" height="220.672"/>
	<polygon style="fill:#242D3C;" points="213.207,92.611 180.867,36.608 148.544,92.605 132.695,83.464 180.861,0 229.056,83.461 	
		"/>
	<path style="fill:#242D3C;" d="M230.275,348.956h-18.299l0.008-238.83l-24.64,24.637c-3.574,3.566-9.364,3.571-12.938-0.003
		l-24.632-24.632l-0.008,238.83h-18.299l0.008-260.92c0-3.699,2.23-7.037,5.647-8.453c3.436-1.423,7.355-0.63,9.971,1.984
		l33.782,33.782l33.787-33.789c2.616-2.609,6.546-3.402,9.974-1.979c3.415,1.416,5.647,4.754,5.647,8.453L230.275,348.956z"/>
	<polygon style="fill:#242D3C;" points="380.536,348.956 362.237,348.956 362.237,32.228 300.019,32.228 300.019,348.956 
		281.72,348.956 281.72,13.929 380.536,13.929 	"/>
	<rect x="345.754" y="330.65" style="fill:#242D3C;" width="25.626" height="18.299"/>
	<rect x="345.754" y="295.45" style="fill:#242D3C;" width="25.626" height="18.299"/>
	<rect x="345.754" y="260.275" style="fill:#242D3C;" width="25.626" height="18.299"/>
	<rect x="345.754" y="225.075" style="fill:#242D3C;" width="25.626" height="18.299"/>
	<rect x="345.754" y="189.875" style="fill:#242D3C;" width="25.626" height="18.299"/>
	<rect x="345.754" y="154.701" style="fill:#242D3C;" width="25.626" height="18.299"/>
	<rect x="345.754" y="119.501" style="fill:#242D3C;" width="25.626" height="18.299"/>
	<rect x="345.754" y="84.311" style="fill:#242D3C;" width="25.626" height="18.299"/>
	<rect x="345.754" y="49.126" style="fill:#242D3C;" width="25.626" height="18.299"/>
</g>
<g>
</g>
<g>
</g>
<g>
</g>
<g>
</g>
<g>
</g>
<g>
</g>
<g>
</g>
<g>
</g>
<g>
</g>
<g>
</g>
<g>
</g>
<g>
</g>
<g>
</g>
<g>
</g>
<g>
</g>
</svg>
