<?xml version="1.0" encoding="iso-8859-1"?>
<!-- Generator: Adobe Illustrator 19.0.0, SVG Export Plug-In . SVG Version: 6.00 Build 0)  -->
<svg version="1.1" id="Layer_1" xmlns="http://www.w3.org/2000/svg" xmlns:xlink="http://www.w3.org/1999/xlink" x="0px" y="0px"
	 viewBox="0 0 512 512" style="enable-background:new 0 0 512 512;" xml:space="preserve">
<path style="fill:#43D3E8;" d="M448.735,273.211l0.008-212.401v-0.026H63.26l-0.008,0.044l0.013,212.383
	c-21.55,0-39.951,13.307-47.521,32.138l-3.707,19.082c0,28.242,22.92,51.185,51.223,51.185h385.482
	c28.306,0,51.215-22.943,51.215-51.185l-3.702-19.082C488.689,286.518,470.29,273.211,448.735,273.211z"/>
<g>
	<path style="fill:#242D3C;" d="M21.642,324.419H2.435V60.795C2.435,27.277,29.714,0.003,63.25,0h9.603l0.018,282.816h-9.605
		C40.317,282.816,21.642,301.481,21.642,324.419z M53.645,20.329c-18.324,4.344-32,20.841-32,40.463v219.315
		c8.681-8.151,19.743-13.791,32.018-15.744L53.645,20.329z"/>
	<rect x="63.26" y="51.18" style="fill:#242D3C;" width="385.485" height="19.208"/>
	<path style="fill:#242D3C;" d="M448.742,385.221H63.26c-33.539,0-60.828-27.269-60.828-60.79H21.64
		c0,22.922,18.668,41.58,41.618,41.58h385.485c22.945,0,41.61-18.657,41.61-41.58h19.215
		C509.568,357.949,482.281,385.221,448.742,385.221z"/>
	<path style="fill:#242D3C;" d="M509.568,324.419h-19.215c0-22.938-18.667-41.603-41.618-41.603h-9.605L439.142,0h9.61
		c33.533,0.003,60.815,27.277,60.815,60.795L509.568,324.419L509.568,324.419z M458.34,264.366
		c12.275,1.956,23.34,7.596,32.013,15.744V60.795c0-19.625-13.673-36.119-32-40.463L458.34,264.366z"/>
</g>
<g>
	<rect x="101.727" y="317.978" style="fill:#FFFFFF;" width="91.203" height="19.213"/>
	<rect x="101.727" y="279.578" style="fill:#FFFFFF;" width="91.203" height="19.208"/>
	<rect x="210.406" y="317.978" style="fill:#FFFFFF;" width="91.208" height="19.213"/>
	<rect x="210.406" y="279.578" style="fill:#FFFFFF;" width="91.208" height="19.208"/>
	<rect x="319.053" y="317.978" style="fill:#FFFFFF;" width="91.213" height="19.213"/>
	<rect x="319.053" y="279.578" style="fill:#FFFFFF;" width="91.213" height="19.208"/>
	<rect x="101.727" y="99.246" style="fill:#FFFFFF;" width="308.557" height="70.95"/>
	<rect x="101.727" y="189.404" style="fill:#FFFFFF;" width="91.203" height="70.948"/>
	<rect x="210.406" y="189.404" style="fill:#FFFFFF;" width="91.208" height="70.948"/>
	<rect x="319.053" y="189.404" style="fill:#FFFFFF;" width="91.213" height="70.948"/>
</g>
<g>
	<path style="fill:#242D3C;" d="M509.568,512H2.435V408.266h507.133V512z M21.642,492.79h468.71v-65.313H21.642V492.79z"/>
	<rect x="452.813" y="417.869" style="fill:#242D3C;" width="19.215" height="26.898"/>
	<rect x="415.283" y="417.869" style="fill:#242D3C;" width="19.21" height="26.898"/>
	<rect x="377.754" y="417.869" style="fill:#242D3C;" width="19.208" height="26.898"/>
	<rect x="340.224" y="417.869" style="fill:#242D3C;" width="19.21" height="26.898"/>
	<rect x="302.694" y="417.869" style="fill:#242D3C;" width="19.21" height="26.898"/>
	<rect x="265.165" y="417.869" style="fill:#242D3C;" width="19.208" height="26.898"/>
	<rect x="227.635" y="417.869" style="fill:#242D3C;" width="19.208" height="26.898"/>
	<rect x="190.106" y="417.869" style="fill:#242D3C;" width="19.208" height="26.898"/>
	<rect x="152.55" y="417.869" style="fill:#242D3C;" width="19.213" height="26.898"/>
	<rect x="115.036" y="417.869" style="fill:#242D3C;" width="19.208" height="26.898"/>
	<rect x="77.491" y="417.869" style="fill:#242D3C;" width="19.208" height="26.898"/>
	<rect x="39.974" y="417.869" style="fill:#242D3C;" width="19.208" height="26.898"/>
</g>
<g>
</g>
<g>
</g>
<g>
</g>
<g>
</g>
<g>
</g>
<g>
</g>
<g>
</g>
<g>
</g>
<g>
</g>
<g>
</g>
<g>
</g>
<g>
</g>
<g>
</g>
<g>
</g>
<g>
</g>
</svg>
