<?xml version="1.0" encoding="iso-8859-1"?>
<!-- Generator: Adobe Illustrator 19.0.0, SVG Export Plug-In . SVG Version: 6.00 Build 0)  -->
<svg version="1.1" id="Layer_1" xmlns="http://www.w3.org/2000/svg" xmlns:xlink="http://www.w3.org/1999/xlink" x="0px" y="0px"
	 viewBox="0 0 512 512" style="enable-background:new 0 0 512 512;" xml:space="preserve">
<g>
	<rect y="359.429" style="fill:#242D3C;" width="20.48" height="20.477"/>
	<path style="fill:#242D3C;" d="M20.48,340.152H0v-19.272h20.48V340.152z M20.48,301.606H0V282.33h20.48V301.606z M20.48,263.053H0
		v-19.274h20.48V263.053z M20.48,224.499H0v-19.274h20.48V224.499z M20.48,185.951H0v-19.279h20.48V185.951z M20.48,147.395H0
		V128.12h20.48V147.395z M20.48,108.846H0V89.572h20.48V108.846z M20.48,70.298H0V51.018h20.48V70.298z"/>
	<rect y="11.261" style="fill:#242D3C;" width="20.48" height="20.48"/>
	<path style="fill:#242D3C;" d="M471.043,31.739h-20.48v-20.48h20.48V31.739z M430.083,31.739h-20.48v-20.48h20.48V31.739z
		 M389.12,31.739h-20.48v-20.48h20.48V31.739z M348.163,31.739h-20.485v-20.48h20.485V31.739z M307.197,31.739H286.72v-20.48h20.477
		V31.739z M266.24,31.739h-20.48v-20.48h20.48V31.739z M225.28,31.739H204.8v-20.48h20.48V31.739z M184.323,31.739h-20.48v-20.48
		h20.48V31.739z M143.36,31.739h-20.48v-20.48h20.48V31.739z M102.4,31.739H81.917v-20.48H102.4V31.739z M61.437,31.739h-20.48
		v-20.48h20.48V31.739z"/>
	<rect x="491.52" y="11.261" style="fill:#242D3C;" width="20.48" height="20.48"/>
	<path style="fill:#242D3C;" d="M512,340.152h-20.48v-19.272H512V340.152z M512,301.606h-20.48v-19.274H512V301.606z M512,263.053
		h-20.48v-19.274H512V263.053z M512,224.499h-20.48v-19.274H512V224.499z M512,185.951h-20.48v-19.279H512V185.951z M512,147.395
		h-20.48V128.12H512V147.395z M512,108.846h-20.48V89.572H512V108.846z M512,70.298h-20.48V51.018H512V70.298z"/>
	<rect x="491.52" y="359.429" style="fill:#242D3C;" width="20.48" height="20.477"/>
	<path style="fill:#242D3C;" d="M471.043,379.909h-20.48v-20.477h20.48V379.909z M430.083,379.909h-20.48v-20.477h20.48V379.909z
		 M389.12,379.909h-20.48v-20.477h20.48V379.909z M348.163,379.909h-20.485v-20.477h20.485V379.909z M307.197,379.909H286.72
		v-20.477h20.477V379.909z M266.24,379.909h-20.48v-20.477h20.48V379.909z M225.28,379.909H204.8v-20.477h20.48V379.909z
		 M184.323,379.909h-20.48v-20.477h20.48V379.909z M143.36,379.909h-20.48v-20.477h20.48V379.909z M102.4,379.909H81.917v-20.477
		H102.4V379.909z M61.437,379.909h-20.48v-20.477h20.48V379.909z"/>
</g>
<rect x="51.2" y="62.469" style="fill:#43D3E8;" width="409.6" height="266.24"/>
<g>
	<polygon style="fill:#FFFFFF;" points="223.26,160.509 301.169,238.405 333.906,205.676 413.699,285.463 98.296,285.463 	"/>
	<circle style="fill:#FFFFFF;" cx="301.158" cy="131.82" r="28.672"/>
</g>
<rect y="410.629" style="fill:#F96232;" width="512" height="90.112"/>
<g>
	<rect x="462.387" y="410.629" style="fill:#FFFFFF;" width="20.48" height="28.675"/>
	<rect x="422.989" y="410.629" style="fill:#FFFFFF;" width="20.48" height="28.675"/>
	<rect x="383.616" y="410.629" style="fill:#FFFFFF;" width="20.477" height="28.675"/>
	<rect x="344.218" y="410.629" style="fill:#FFFFFF;" width="20.48" height="28.675"/>
	<rect x="304.845" y="410.629" style="fill:#FFFFFF;" width="20.48" height="28.675"/>
	<rect x="265.446" y="410.629" style="fill:#FFFFFF;" width="20.48" height="28.675"/>
	<rect x="226.074" y="410.629" style="fill:#FFFFFF;" width="20.48" height="28.675"/>
	<rect x="186.683" y="410.629" style="fill:#FFFFFF;" width="20.48" height="28.675"/>
	<rect x="147.302" y="410.629" style="fill:#FFFFFF;" width="20.48" height="28.675"/>
	<rect x="107.93" y="410.629" style="fill:#FFFFFF;" width="20.48" height="28.675"/>
	<rect x="68.531" y="410.629" style="fill:#FFFFFF;" width="20.48" height="28.675"/>
	<rect x="29.146" y="410.629" style="fill:#FFFFFF;" width="20.48" height="28.675"/>
</g>
<g>
</g>
<g>
</g>
<g>
</g>
<g>
</g>
<g>
</g>
<g>
</g>
<g>
</g>
<g>
</g>
<g>
</g>
<g>
</g>
<g>
</g>
<g>
</g>
<g>
</g>
<g>
</g>
<g>
</g>
</svg>
