<?xml version="1.0" encoding="iso-8859-1"?>
<!-- Generator: Adobe Illustrator 19.0.0, SVG Export Plug-In . SVG Version: 6.00 Build 0)  -->
<svg version="1.1" id="Layer_1" xmlns="http://www.w3.org/2000/svg" xmlns:xlink="http://www.w3.org/1999/xlink" x="0px" y="0px"
	 viewBox="0 0 512.013 512.013" style="enable-background:new 0 0 512.013 512.013;" xml:space="preserve">
<g>
	<polygon style="fill:#242D3C;" points="333.43,512 178.586,512 178.586,460.388 197.798,460.388 197.798,492.787 314.217,492.787 
		314.217,460.388 333.43,460.388 	"/>
	<rect x="149.509" y="492.8" style="fill:#242D3C;" width="213.043" height="19.213"/>
	<path style="fill:#242D3C;" d="M496.172,388.846H15.839V83.121c0-6.902,2.693-13.399,7.578-18.286s11.395-7.578,18.324-7.578
		h85.535V76.47H41.741c-1.272,0-3.123,0.335-4.739,1.951c-1.26,1.26-1.951,2.926-1.951,4.7v286.51h441.91V83.121
		c0-1.748-0.709-3.412-1.989-4.7c-1.26-1.272-2.9-1.951-4.662-1.951H384.74V57.257h85.571c6.935,0,13.43,2.706,18.286,7.621
		c4.872,4.872,7.58,11.364,7.58,18.243v305.725H496.172z"/>
	<path style="fill:#242D3C;" d="M470.295,443.077H41.713c-6.956,0-13.46-2.698-18.319-7.601c-4.854-4.831-7.557-11.333-7.557-18.273
		v-47.572h480.333v47.572c0,6.935-2.711,13.44-7.626,18.327C483.743,440.374,477.243,443.077,470.295,443.077z M35.052,388.846
		v28.36c0,1.787,0.691,3.453,1.938,4.692c1.705,1.72,3.689,1.969,4.726,1.969h428.582c1.032,0,3.008-0.248,4.657-1.912
		c1.313-1.303,2.007-2.97,2.007-4.746v-28.36H35.052V388.846z"/>
</g>
<g>
	<rect x="384.747" y="105.293" style="fill:#43D3E8;" width="63.411" height="235.52"/>
	<rect x="63.88" y="105.293" style="fill:#43D3E8;" width="63.396" height="235.52"/>
</g>
<g>
	<polygon style="fill:#242D3C;" points="394.342,340.813 375.13,340.813 375.13,70.856 323.476,19.213 136.881,19.213 
		136.881,340.813 117.668,340.813 117.668,0 331.433,0 394.342,62.902 	"/>
	<polygon style="fill:#242D3C;" points="384.737,76.472 317.844,76.472 317.844,9.597 337.062,9.597 337.062,57.257 384.737,57.257 
			"/>
	<rect x="242.437" y="250.445" style="fill:#242D3C;" width="99.917" height="19.213"/>
	<rect x="242.437" y="281.19" style="fill:#242D3C;" width="99.917" height="19.218"/>
</g>
<polygon style="fill:#F96232;" points="189.12,300.393 162.455,273.733 176.875,259.302 189.11,271.534 212.618,248.013 
	227.046,262.436 "/>
<g>
	<rect x="242.437" y="181.274" style="fill:#242D3C;" width="99.917" height="19.213"/>
	<rect x="242.437" y="212.019" style="fill:#242D3C;" width="99.917" height="19.213"/>
</g>
<polygon style="fill:#F96232;" points="189.12,231.224 162.455,204.567 176.875,190.134 189.11,202.368 212.618,178.842 
	227.046,193.265 "/>
<g>
	<rect x="242.437" y="112.105" style="fill:#242D3C;" width="99.917" height="19.218"/>
	<rect x="242.437" y="142.848" style="fill:#242D3C;" width="99.917" height="19.213"/>
</g>
<polygon style="fill:#F96232;" points="189.12,162.056 162.455,135.398 176.875,120.963 189.11,133.197 212.618,109.673 
	227.046,124.096 "/>
<g>
</g>
<g>
</g>
<g>
</g>
<g>
</g>
<g>
</g>
<g>
</g>
<g>
</g>
<g>
</g>
<g>
</g>
<g>
</g>
<g>
</g>
<g>
</g>
<g>
</g>
<g>
</g>
<g>
</g>
</svg>
