<?xml version="1.0" encoding="iso-8859-1"?>
<!-- Generator: Adobe Illustrator 19.0.0, SVG Export Plug-In . SVG Version: 6.00 Build 0)  -->
<svg version="1.1" id="Layer_1" xmlns="http://www.w3.org/2000/svg" xmlns:xlink="http://www.w3.org/1999/xlink" x="0px" y="0px"
	 viewBox="0 0 512 512" style="enable-background:new 0 0 512 512;" xml:space="preserve">
<polygon style="fill:#F96232;" points="280.694,177.536 256.005,224.015 231.324,177.536 163.054,177.536 163.054,270.49 
	348.946,270.49 348.946,177.536 "/>
<g>
	<polygon style="fill:#242D3C;" points="358.088,279.649 153.912,279.649 153.912,168.402 231.316,168.402 231.316,186.685 
		172.198,186.685 172.198,261.356 339.802,261.356 339.802,186.685 280.694,186.685 280.694,168.402 358.088,168.402 	"/>
	<path style="fill:#242D3C;" d="M125.716,419.062H14.49V307.814h111.227V419.062z M32.776,400.778h74.657v-74.675H32.776V400.778z"
		/>
	<polygon style="fill:#242D3C;" points="218.675,372.577 142.175,372.577 142.175,354.286 200.384,354.286 200.384,296.084 
		218.675,296.084 	"/>
	<path style="fill:#242D3C;" d="M497.51,419.062H386.284V307.814H497.51V419.062z M404.567,400.778h74.657v-74.675h-74.657V400.778z
		"/>
	<polygon style="fill:#242D3C;" points="369.825,372.577 293.343,372.577 293.343,296.084 311.626,296.084 311.626,354.286 
		369.825,354.286 	"/>
	<path style="fill:#242D3C;" d="M497.51,279.631H386.284v-111.24H497.51V279.631z M404.567,261.348h74.657v-74.665h-74.657V261.348z
		"/>
	<rect x="348.954" y="214.874" style="fill:#242D3C;" width="46.49" height="18.286"/>
	<path style="fill:#242D3C;" d="M125.716,279.631H14.49v-111.24h111.227V279.631z M32.776,261.348h74.657v-74.665H32.776V261.348z"
		/>
	<rect x="116.575" y="214.874" style="fill:#242D3C;" width="46.49" height="18.286"/>
	<rect x="246.861" y="270.49" style="fill:#242D3C;" width="18.286" height="139.443"/>
	<path style="fill:#242D3C;" d="M311.626,512H200.384V400.778h111.242L311.626,512L311.626,512z M218.675,493.714h74.668v-74.652
		h-74.668V493.714z"/>
	<path style="fill:#242D3C;" d="M256.005,243.51l-67.08-126.321c-7.06-12.111-10.716-25.649-10.716-39.409
		C178.212,34.893,213.11,0,256.005,0c42.9,0,77.803,34.893,77.803,77.78c0,13.737-3.653,27.254-10.57,39.117l-0.077,0.161
		L256.005,243.51z M256.005,18.289c-32.812,0-59.51,26.688-59.51,59.492c0,10.637,2.854,21.097,8.256,30.249l0.256,0.451
		l50.998,96.044l51.246-96.507c5.412-9.147,8.271-19.607,8.271-30.236C315.523,44.977,288.824,18.289,256.005,18.289z"/>
</g>
<circle style="fill:#F96232;" cx="256" cy="77.78" r="34.429"/>
<g>
</g>
<g>
</g>
<g>
</g>
<g>
</g>
<g>
</g>
<g>
</g>
<g>
</g>
<g>
</g>
<g>
</g>
<g>
</g>
<g>
</g>
<g>
</g>
<g>
</g>
<g>
</g>
<g>
</g>
</svg>
