<?xml version="1.0" encoding="iso-8859-1"?>
<!-- Generator: Adobe Illustrator 19.0.0, SVG Export Plug-In . SVG Version: 6.00 Build 0)  -->
<svg version="1.1" id="Layer_1" xmlns="http://www.w3.org/2000/svg" xmlns:xlink="http://www.w3.org/1999/xlink" x="0px" y="0px"
	 viewBox="0 0 512 512" style="enable-background:new 0 0 512 512;" xml:space="preserve">
<rect y="120.081" style="fill:#F96232;" width="434.022" height="77.985"/>
<path style="fill:#242D3C;" d="M434.012,120.081v77.985H512v-77.985H434.012z M495.048,181.116h-44.081v-44.083h44.081V181.116z"/>
<g>
	<rect y="86.171" style="fill:#F96232;" width="512" height="145.807"/>
</g>
<g>
	<rect y="120.081" style="fill:#FFFFFF;" width="512" height="77.985"/>
</g>
<g>
	<path style="fill:#242D3C;" d="M256.008,303.738L256.008,303.738c-79.772-0.008-144.671-64.901-144.671-144.668
		c0-79.764,64.893-144.663,144.663-144.663c38.643,0,74.97,15.048,102.292,42.373c27.323,27.323,42.371,63.649,42.368,102.29
		C400.66,238.842,335.772,303.738,256.008,303.738z M256,31.359c-70.415,0-127.706,57.293-127.706,127.711
		c0,70.42,57.293,127.708,127.713,127.716c70.413,0,127.7-57.29,127.7-127.716c0-34.112-13.281-66.181-37.402-90.301
		C322.186,44.65,290.112,31.359,256,31.359z"/>
	<rect x="247.526" y="295.267" style="fill:#242D3C;" width="16.955" height="35.994"/>
</g>
<rect x="224.691" y="331.286" style="fill:#43D3E8;" width="62.643" height="166.308"/>
<g>
	<rect x="224.691" y="353.916" style="fill:#242D3C;" width="62.643" height="16.952"/>
	<rect x="224.691" y="457.98" style="fill:#242D3C;" width="62.643" height="16.952"/>
	<path style="fill:#242D3C;" d="M171.446,188.084c-2.271,0-4.388-1.132-5.645-3.021l-12.078-18.12
		c-0.742-1.111-1.139-2.422-1.139-3.761v-26.335h13.56v24.284l5.302,7.946l5.297-7.946v-24.284h13.563v26.337
		c0,1.339-0.399,2.65-1.137,3.761l-12.081,18.12C175.828,186.953,173.709,188.084,171.446,188.084z"/>
	<path style="fill:#242D3C;" d="M195.602,188.084c-2.271,0-4.383-1.132-5.645-3.021l-12.078-18.12
		c-0.742-1.111-1.139-2.422-1.139-3.761v-26.335h13.563v24.284l5.297,7.946l5.297-7.946v-24.284h13.563v26.337
		c0,1.339-0.394,2.65-1.137,3.761l-12.078,18.12C199.985,186.953,197.87,188.084,195.602,188.084z"/>
	<path style="fill:#242D3C;" d="M243.922,188.084c-2.271,0-4.383-1.132-5.645-3.021l-12.078-18.12
		c-0.742-1.111-1.139-2.422-1.139-3.761v-26.335h13.565v24.284l5.297,7.946l5.297-7.946v-24.284h13.565v26.337
		c0,1.339-0.397,2.65-1.139,3.761l-12.081,18.12C248.305,186.953,246.188,188.084,243.922,188.084z"/>
	<path style="fill:#242D3C;" d="M268.081,188.084c-2.268,0-4.385-1.132-5.645-3.021l-12.078-18.12
		c-0.742-1.111-1.139-2.422-1.139-3.761v-26.335h13.565v24.284l5.297,7.946l5.294-7.946v-24.284h13.565v26.337
		c0,1.339-0.397,2.65-1.139,3.761l-12.078,18.12C272.463,186.953,270.346,188.084,268.081,188.084z"/>
	<path style="fill:#242D3C;" d="M316.398,188.084c-2.271,0-4.388-1.132-5.642-3.021l-12.081-18.12
		c-0.742-1.111-1.137-2.422-1.137-3.761v-26.335h13.56v24.284l5.299,7.946l5.297-7.946v-24.284h13.563v26.337
		c0,1.339-0.399,2.65-1.137,3.761l-12.081,18.12C320.781,186.953,318.666,188.084,316.398,188.084z"/>
	<path style="fill:#242D3C;" d="M340.554,188.084c-2.271,0-4.383-1.132-5.642-3.021l-12.081-18.12
		c-0.737-1.111-1.137-2.422-1.137-3.761v-26.335h13.563v24.284l5.297,7.946l5.299-7.946v-24.284h13.56v26.337
		c0,1.339-0.394,2.65-1.137,3.761l-12.081,18.12C344.942,186.953,342.825,188.084,340.554,188.084z"/>
</g>
<g>
</g>
<g>
</g>
<g>
</g>
<g>
</g>
<g>
</g>
<g>
</g>
<g>
</g>
<g>
</g>
<g>
</g>
<g>
</g>
<g>
</g>
<g>
</g>
<g>
</g>
<g>
</g>
<g>
</g>
</svg>
