<?xml version="1.0" encoding="iso-8859-1"?>
<!-- Generator: Adobe Illustrator 19.0.0, SVG Export Plug-In . SVG Version: 6.00 Build 0)  -->
<svg version="1.1" id="Layer_1" xmlns="http://www.w3.org/2000/svg" xmlns:xlink="http://www.w3.org/1999/xlink" x="0px" y="0px"
	 viewBox="0 0 512 512" style="enable-background:new 0 0 512 512;" xml:space="preserve">
<g>
	<polygon style="fill:#242D3C;" points="383.03,91.557 359.135,67.657 372.065,54.726 383.03,65.688 404.099,44.607 417.029,57.532 
			"/>
	<path style="fill:#242D3C;" d="M388.078,124.156c-32.699,0-59.308-26.606-59.308-59.308s26.609-59.308,59.307-59.308
		c32.707,0,59.313,26.606,59.313,59.308C447.391,97.548,420.785,124.156,388.078,124.156z M388.078,23.825
		c-22.618,0-41.021,18.404-41.021,41.021c0,22.623,18.404,41.021,41.021,41.021c22.623,0,41.027-18.401,41.027-41.021
		C429.105,42.228,410.701,23.825,388.078,23.825z"/>
</g>
<rect x="273.306" y="138.725" style="fill:#43D3E8;" width="229.555" height="284.774"/>
<g>
	<rect x="351.206" y="451.301" style="fill:#242D3C;" width="73.795" height="18.291"/>
	<path style="fill:#242D3C;" d="M471.995,506.454H304.159c-22.054,0-40.003-17.928-40.003-39.967V95.704
		c0-22.054,17.948-40.003,40.003-40.003h33.769v18.286h-33.769c-11.976,0-21.716,9.746-21.716,21.719V466.49
		c0,11.958,9.743,21.683,21.716,21.683h167.836c11.973,0,21.719-9.725,21.719-21.683V95.704c0-11.973-9.748-21.719-21.719-21.719
		h-33.731V55.699h33.731c22.057,0,40.005,17.948,40.005,40.003v370.783C512,488.526,494.052,506.454,471.995,506.454z"/>
	<rect x="273.306" y="129.576" style="fill:#242D3C;" width="229.555" height="18.286"/>
	<rect x="273.306" y="414.36" style="fill:#242D3C;" width="229.555" height="18.291"/>
</g>
<path style="fill:#FFFFFF;" d="M465.498,281.12c0,43.848-35.569,79.391-79.414,79.391s-79.388-35.543-79.388-79.391
	s35.543-79.406,79.388-79.406C429.929,201.714,465.498,237.27,465.498,281.12z"/>
<g>
	<path style="fill:#242D3C;" d="M392.471,290.262h-31.885c-5.048,0-9.142-4.096-9.142-9.142v-38.259
		c0-5.053,4.096-9.142,9.142-9.142h31.885c7.56,0,14.664,2.939,19.994,8.284c5.327,5.335,8.266,12.436,8.266,19.986
		c0,7.562-2.941,14.664-8.276,19.991C407.153,287.308,400.044,290.262,392.471,290.262z M369.728,271.976h22.743
		c2.673,0,5.171-1.034,7.037-2.913c1.897-1.897,2.934-4.403,2.934-7.078c0-2.67-1.034-5.179-2.921-7.068
		c-1.874-1.882-4.378-2.916-7.05-2.916h-22.743L369.728,271.976L369.728,271.976z"/>
	<path style="fill:#242D3C;" d="M392.471,328.511h-31.885c-5.048,0-9.142-4.096-9.142-9.142V281.12c0-5.053,4.096-9.142,9.142-9.142
		h31.885c7.567,0,14.669,2.939,20.001,8.287c5.315,5.315,8.259,12.413,8.259,19.971c0,7.56-2.941,14.666-8.276,19.994
		C407.153,325.562,400.044,328.511,392.471,328.511z M369.728,310.227h22.743c2.673,0,5.171-1.034,7.037-2.913
		c1.897-1.897,2.934-4.403,2.934-7.081c0-2.67-1.034-5.174-2.911-7.048c-1.884-1.894-4.388-2.926-7.06-2.926h-22.743V310.227z"/>
</g>
<rect x="9.147" y="138.725" style="fill:#F96232;" width="229.555" height="284.774"/>
<g>
	<rect x="114.783" y="92.645" style="fill:#242D3C;" width="18.286" height="18.286"/>
	<rect x="87.032" y="451.301" style="fill:#242D3C;" width="73.795" height="18.291"/>
	<path style="fill:#242D3C;" d="M207.857,506.459H40.008C17.948,506.459,0,488.526,0,466.484V95.72
		c0-22.067,17.948-40.015,40.008-40.015h167.849c22.054,0,39.995,17.948,39.995,40.015v370.765
		C247.852,488.526,229.911,506.459,207.857,506.459z M40.008,73.99c-11.976,0-21.719,9.746-21.719,21.729v370.765
		c0,11.96,9.743,21.691,21.719,21.691h167.849c11.968,0,21.709-9.731,21.709-21.691V95.72c0-11.983-9.743-21.729-21.709-21.729
		H40.008z"/>
	<rect x="9.147" y="129.576" style="fill:#242D3C;" width="229.555" height="18.286"/>
	<rect x="9.147" y="414.36" style="fill:#242D3C;" width="229.555" height="18.291"/>
</g>
<path style="fill:#FFFFFF;" d="M203.325,281.12c0,43.848-35.551,79.391-79.398,79.391s-79.406-35.543-79.406-79.391
	s35.556-79.406,79.406-79.406C167.775,201.714,203.325,237.27,203.325,281.12z"/>
<g>
	<path style="fill:#242D3C;" d="M158.569,328.511h-18.291v-66.524c0-2.67-1.039-5.179-2.924-7.063
		c-1.882-1.884-4.39-2.921-7.055-2.921h-12.751c-2.668,0-5.174,1.039-7.068,2.934c-1.869,1.871-2.908,4.385-2.908,7.05v66.524
		H89.285v-66.524c0-7.537,2.934-14.633,8.256-19.981c5.373-5.353,12.47-8.289,20.006-8.289h12.751
		c7.552,0,14.656,2.936,19.991,8.276c5.338,5.343,8.279,12.444,8.279,19.994L158.569,328.511L158.569,328.511z"/>
	<rect x="89.285" y="271.973" style="fill:#242D3C;" width="69.274" height="18.286"/>
</g>
<g>
</g>
<g>
</g>
<g>
</g>
<g>
</g>
<g>
</g>
<g>
</g>
<g>
</g>
<g>
</g>
<g>
</g>
<g>
</g>
<g>
</g>
<g>
</g>
<g>
</g>
<g>
</g>
<g>
</g>
</svg>
