<?xml version="1.0" encoding="iso-8859-1"?>
<!-- Generator: Adobe Illustrator 19.0.0, SVG Export Plug-In . SVG Version: 6.00 Build 0)  -->
<svg version="1.1" id="Layer_1" xmlns="http://www.w3.org/2000/svg" xmlns:xlink="http://www.w3.org/1999/xlink" x="0px" y="0px"
	 viewBox="0 0 512 512" style="enable-background:new 0 0 512 512;" xml:space="preserve">
<g>
	<path style="fill:#F96232;" d="M491.327,487.488c0,3.766-1.434,7.521-4.311,10.404c-2.87,2.87-6.633,4.314-10.396,4.303H295.197
		v-73.544l181.419,0.005c3.771-0.005,7.526,1.428,10.399,4.303c2.872,2.872,4.311,6.635,4.314,10.409L491.327,487.488z"/>
	<rect x="266.574" y="443.366" style="fill:#F96232;" width="28.626" height="44.111"/>
</g>
<g>
	<path style="fill:#242D3C;" d="M476.653,512h-191.26l-0.005-93.153l191.229,0.005c6.561,0,12.716,2.55,17.334,7.181
		c4.618,4.616,7.168,10.765,7.181,17.321l-0.003,44.134c0,6.541-2.547,12.7-7.178,17.334C489.327,509.455,483.176,512,476.653,512z
		 M305.005,492.39h171.651c1.29,0,2.506-0.509,3.43-1.434c0.924-0.927,1.439-2.163,1.439-3.469l0.003-44.116
		c-0.003-0.75-0.187-2.225-1.441-3.474c-1.242-1.247-2.696-1.434-3.453-1.434l-171.628-0.005L305.005,492.39L305.005,492.39z"/>
	<rect x="326.913" y="455.629" style="fill:#242D3C;" width="132.703" height="19.61"/>
	<path style="fill:#242D3C;" d="M256.767,497.298v-63.736l48.236-0.005v63.726L256.767,497.298z M276.379,453.171v24.507h9.014
		v-24.507H276.379z"/>
	<path style="fill:#242D3C;" d="M69.165,493.425l-58.296-14.932v-26.143l58.289-14.933l32.092,27.999L69.165,493.425z
		 M38.87,465.421l25.17,6.449l7.383-6.449l-7.383-6.446L38.87,465.421z"/>
	<rect x="86.34" y="455.603" style="fill:#242D3C;" width="180.224" height="19.61"/>
	<path style="fill:#242D3C;" d="M463.873,396.137H48.127c-20.544,0-37.261-16.717-37.261-37.261V88.248
		c0-20.547,16.717-37.258,37.261-37.258h415.747c20.544,0,37.261,16.712,37.261,37.258v270.628
		C501.134,379.42,484.42,396.137,463.873,396.137z M48.127,70.6c-9.736,0-17.651,7.916-17.651,17.649v270.628
		c0,9.731,7.916,17.651,17.651,17.651h415.747c9.736,0,17.651-7.921,17.651-17.651V88.248c0-9.733-7.916-17.649-17.651-17.649
		H48.127z"/>
</g>
<rect x="52.049" y="92.16" style="fill:#43D3E8;" width="407.91" height="262.784"/>
<path style="fill:#FFFFFF;" d="M361.901,223.565c0,58.491-47.411,105.894-105.9,105.894c-58.491,0-105.894-47.404-105.894-105.894
	S197.51,117.66,256.001,117.66S361.901,165.071,361.901,223.565z"/>
<g>
	<rect x="320.718" y="9.805" style="fill:#242D3C;" width="19.615" height="50.99"/>
	<rect x="171.675" y="9.805" style="fill:#242D3C;" width="19.615" height="50.99"/>
	<rect x="154.036" style="fill:#242D3C;" width="203.955" height="19.61"/>
	<path style="fill:#242D3C;" d="M256.001,286.543c-34.732,0-62.984-28.252-62.984-62.984s28.252-62.979,62.984-62.979
		c34.739,0,62.999,28.247,62.999,62.979S290.74,286.543,256.001,286.543z M256.001,180.191c-23.913,0-43.374,19.451-43.374,43.369
		c0,23.913,19.461,43.374,43.374,43.374c23.928,0,43.389-19.461,43.389-43.374C299.391,199.642,279.93,180.191,256.001,180.191z"/>
	<path style="fill:#242D3C;" d="M256.001,253.053c-16.266,0-29.499-13.233-29.499-29.494s13.233-29.494,29.499-29.494
		c16.274,0,29.512,13.23,29.512,29.494S272.275,253.053,256.001,253.053z M256.001,213.676c-5.448,0-9.889,4.434-9.889,9.884
		c0,5.45,4.439,9.884,9.889,9.884c5.458,0,9.902-4.436,9.902-9.884S261.459,213.676,256.001,213.676z"/>
	<rect x="246.196" y="149.043" style="fill:#242D3C;" width="19.61" height="21.345"/>
	
		<rect x="213.415" y="158.452" transform="matrix(-0.5 -0.866 0.866 -0.5 190.4131 446.4483)" style="fill:#242D3C;" width="21.337" height="19.612"/>
	
		<rect x="190.041" y="181.83" transform="matrix(-0.8661 -0.4999 0.4999 -0.8661 278.7479 457.9395)" style="fill:#242D3C;" width="21.34" height="19.607"/>
	<rect x="181.482" y="213.76" style="fill:#242D3C;" width="21.34" height="19.61"/>
	
		<rect x="190.914" y="244.81" transform="matrix(-0.5 -0.866 0.866 -0.5 79.8318 557.0465)" style="fill:#242D3C;" width="19.609" height="21.337"/>
	
		<rect x="214.262" y="268.21" transform="matrix(-0.866 -0.5 0.5 -0.866 278.6916 632.4289)" style="fill:#242D3C;" width="19.613" height="21.339"/>
	<rect x="246.196" y="276.736" style="fill:#242D3C;" width="19.61" height="21.34"/>
	
		<rect x="277.246" y="269.053" transform="matrix(-0.5004 -0.8658 0.8658 -0.5004 190.5605 667.6766)" style="fill:#242D3C;" width="21.348" height="19.61"/>
	
		<rect x="300.643" y="245.69" transform="matrix(-0.8662 -0.4997 0.4997 -0.8662 453.2866 632.3738)" style="fill:#242D3C;" width="21.327" height="19.62"/>
	<rect x="309.198" y="213.76" style="fill:#242D3C;" width="21.33" height="19.61"/>
	
		<rect x="301.52" y="180.985" transform="matrix(-0.5001 -0.866 0.866 -0.5001 301.0441 557.097)" style="fill:#242D3C;" width="19.608" height="21.338"/>
	
		<rect x="278.122" y="157.592" transform="matrix(-0.8658 -0.5004 0.5004 -0.8658 453.0163 458.0241)" style="fill:#242D3C;" width="19.612" height="21.343"/>
</g>
<g>
</g>
<g>
</g>
<g>
</g>
<g>
</g>
<g>
</g>
<g>
</g>
<g>
</g>
<g>
</g>
<g>
</g>
<g>
</g>
<g>
</g>
<g>
</g>
<g>
</g>
<g>
</g>
<g>
</g>
</svg>
