<?xml version="1.0" encoding="iso-8859-1"?>
<!-- Generator: Adobe Illustrator 19.0.0, SVG Export Plug-In . SVG Version: 6.00 Build 0)  -->
<svg version="1.1" id="Layer_1" xmlns="http://www.w3.org/2000/svg" xmlns:xlink="http://www.w3.org/1999/xlink" x="0px" y="0px"
	 viewBox="0 0 512 512" style="enable-background:new 0 0 512 512;" xml:space="preserve">
<path style="fill:#F96232;" d="M317.777,203.144c0,34.13-27.651,61.775-61.788,61.775c-34.109,0-61.752-27.645-61.752-61.775
	c0-34.127,27.64-61.775,61.752-61.775C290.126,141.368,317.777,169.016,317.777,203.144z"/>
<g>
	<path style="fill:#242D3C;" d="M440.731,512h-17.649V320.732c0-4.337-1.708-8.44-4.8-11.553c-3.08-3.075-7.168-4.78-11.482-4.78
		c-4.357,0-8.445,1.697-11.507,4.78c-3.146,3.126-4.859,7.214-4.859,11.553c0,0.008,0,0.015,0,0.023c0,4.872-3.95,8.824-8.824,8.824
		c-4.872,0-8.822-3.953-8.822-8.824c0-4.362-1.697-8.481-4.782-11.581c-3.059-3.072-7.15-4.772-11.494-4.772
		c-4.332,0-8.412,1.7-11.487,4.785c-3.126,3.116-4.836,7.209-4.836,11.571c0,4.872-3.95,8.824-8.824,8.824
		c-4.867,0-8.814-3.945-8.824-8.812v-0.013c0-4.401-1.687-8.504-4.751-11.574c-3.08-3.08-7.176-4.78-11.523-4.78
		c-4.337,0-8.443,1.71-11.553,4.805c-3.059,3.067-4.759,7.171-4.759,11.528c0,4.874-3.953,8.822-8.822,8.822
		c-4.872,0-8.824-3.948-8.824-8.822V203.144c0-4.365-1.692-8.456-4.767-11.515c-3.085-3.092-7.176-4.782-11.546-4.782
		c-4.344,0-8.435,1.692-11.52,4.769c-3.085,3.064-4.772,7.155-4.772,11.528v207.949c0,3.351-1.902,6.413-4.905,7.905
		c-3.005,1.49-6.589,1.147-9.257-0.878c-20.588-15.626-45.14-23.89-71.004-23.89c-8.98,0-16.292,7.311-16.292,16.302
		s7.309,16.305,16.292,16.305c46.958,0,85.164,38.205,85.164,85.164h-17.649c0-37.23-30.285-67.515-67.517-67.515
		c-18.714,0-33.938-15.229-33.938-33.953c0-18.719,15.224-33.951,33.938-33.951c24.023,0,47.06,6.198,67.517,18.051V203.144
		c0-9.108,3.538-17.644,9.969-24.033c6.397-6.387,14.917-9.91,23.969-9.91c9.096,0,17.626,3.528,24.015,9.94
		c6.405,6.374,9.946,14.904,9.946,24.003v87.78c4.961-2.721,10.532-4.17,16.312-4.17c9.062,0,17.585,3.533,24.005,9.956
		c0.389,0.387,0.771,0.786,1.134,1.188c0.374-0.402,0.758-0.806,1.152-1.198c6.382-6.405,14.902-9.946,23.954-9.946
		c9.07,0,17.6,3.54,24.005,9.971c0.389,0.387,0.765,0.788,1.134,1.193c0.374-0.415,0.76-0.814,1.162-1.219
		c6.369-6.4,14.899-9.946,23.99-9.946c9.024,0,17.541,3.535,23.969,9.958c6.431,6.461,9.961,14.986,9.961,24.023L440.731,512
		L440.731,512z"/>
	<polygon style="fill:#242D3C;" points="318.376,153.262 305.896,140.782 326.217,120.463 326.217,74.138 343.863,74.138 
		343.863,127.772 	"/>
	<polygon style="fill:#242D3C;" points="193.611,153.257 168.155,127.767 168.155,74.138 185.806,74.138 185.806,120.466 
		206.099,140.787 	"/>
	<path style="fill:#242D3C;" d="M264.828,124.385h-17.649v-16.978h17.649V124.385z M264.828,90.435h-17.649v-16.98h17.649V90.435z"
		/>
	<path style="fill:#242D3C;" d="M385.683,211.968H368.71v-17.649h16.973V211.968z M351.73,211.968h-16.975v-17.649h16.975V211.968z"
		/>
	<path style="fill:#242D3C;" d="M177.248,211.968h-16.975v-17.649h16.975V211.968z M143.292,211.968h-16.973v-17.649h16.973V211.968
		z"/>
	<path style="fill:#242D3C;" d="M176.974,82.947c-15.572,0-28.237-12.664-28.237-28.237c0-15.57,12.664-28.239,28.237-28.239
		c15.57,0,28.234,12.669,28.234,28.239C205.211,70.282,192.544,82.947,176.974,82.947z M176.974,44.119
		c-5.839,0-10.588,4.751-10.588,10.591s4.749,10.588,10.588,10.588s10.588-4.749,10.588-10.588S182.813,44.119,176.974,44.119z"/>
	<path style="fill:#242D3C;" d="M256.004,56.476c-15.57,0-28.234-12.669-28.234-28.234C227.77,12.669,240.434,0,256.004,0
		c15.572,0,28.239,12.669,28.239,28.239C284.243,43.807,271.576,56.476,256.004,56.476z M256.004,17.649
		c-5.834,0-10.588,4.749-10.588,10.593c0,5.839,4.751,10.588,10.588,10.588c5.844,0,10.591-4.749,10.591-10.588
		C266.597,22.397,261.848,17.649,256.004,17.649z"/>
	<path style="fill:#242D3C;" d="M335.039,82.947c-15.57,0-28.237-12.664-28.237-28.237c0-15.57,12.667-28.239,28.237-28.239
		c15.573,0,28.237,12.669,28.237,28.239C363.276,70.282,350.611,82.947,335.039,82.947z M335.039,44.119
		c-5.842,0-10.591,4.751-10.591,10.591s4.746,10.588,10.591,10.588c5.839,0,10.591-4.749,10.591-10.588
		S340.878,44.119,335.039,44.119z"/>
	<path style="fill:#242D3C;" d="M430.9,231.38c-15.567,0-28.234-12.664-28.234-28.237c0-15.57,12.667-28.234,28.234-28.234
		c15.57,0,28.234,12.664,28.234,28.234C459.137,218.716,446.47,231.38,430.9,231.38z M430.9,192.556
		c-5.839,0-10.588,4.749-10.588,10.588s4.746,10.588,10.588,10.588c5.842,0,10.588-4.749,10.588-10.588
		S436.742,192.556,430.9,192.556z"/>
	<path style="fill:#242D3C;" d="M81.102,231.38c-15.572,0-28.237-12.664-28.237-28.237c0-15.57,12.664-28.234,28.237-28.234
		c15.567,0,28.234,12.664,28.234,28.234C109.336,218.716,96.667,231.38,81.102,231.38z M81.102,192.556
		c-5.839,0-10.588,4.749-10.588,10.588s4.749,10.588,10.588,10.588c5.839,0,10.588-4.749,10.588-10.588
		S86.939,192.556,81.102,192.556z"/>
</g>
<g>
</g>
<g>
</g>
<g>
</g>
<g>
</g>
<g>
</g>
<g>
</g>
<g>
</g>
<g>
</g>
<g>
</g>
<g>
</g>
<g>
</g>
<g>
</g>
<g>
</g>
<g>
</g>
<g>
</g>
</svg>
