<?xml version="1.0" encoding="iso-8859-1"?>
<!-- Generator: Adobe Illustrator 19.0.0, SVG Export Plug-In . SVG Version: 6.00 Build 0)  -->
<svg version="1.1" id="Layer_1" xmlns="http://www.w3.org/2000/svg" xmlns:xlink="http://www.w3.org/1999/xlink" x="0px" y="0px"
	 viewBox="0 0 512 512" style="enable-background:new 0 0 512 512;" xml:space="preserve">
<path style="fill:#F96232;" d="M374.569,255.995c0-13.548,10.417-24.717,23.649-25.879c-1.344-7.859-3.379-15.496-6.006-22.787
	c-12.111,5.609-26.698,1.142-33.49-10.583c-6.738-11.766-3.456-26.621,7.529-34.263c-5.066-6.034-10.627-11.62-16.717-16.671
	c-7.621,10.834-22.451,14.303-34.266,7.501c-11.692-6.797-16.182-21.389-10.555-33.482c-7.355-2.614-14.996-4.652-22.794-6.08
	c-1.185,13.261-12.344,23.665-25.892,23.665c-13.578,0-24.709-10.404-25.892-23.665c-7.862,1.428-15.473,3.464-22.787,6.08
	c5.629,12.091,1.149,26.683-10.606,33.482c-11.738,6.802-26.586,3.336-34.245-7.501c-6.029,5.051-11.597,10.634-16.666,16.671
	c10.857,7.642,14.31,22.497,7.496,34.263c-6.784,11.738-21.368,16.197-33.475,10.583c-2.593,7.293-4.649,14.93-6.08,22.787
	c13.251,1.162,23.677,12.36,23.677,25.879c0,13.568-10.427,24.719-23.677,25.894c1.431,7.854,3.487,15.47,6.08,22.779
	c12.096-5.622,26.688-1.142,33.475,10.588c6.82,11.807,3.361,26.614-7.496,34.304c5.069,5.98,10.637,11.569,16.666,16.663
	c7.66-10.88,22.508-14.331,34.245-7.529c11.763,6.779,16.236,21.422,10.606,33.51c7.311,2.583,14.925,4.618,22.787,6.049
	c1.183-13.274,12.339-23.683,25.892-23.683c13.558,0,24.707,10.409,25.892,23.683c7.798-1.434,15.439-3.466,22.794-6.049
	c-5.627-12.088-1.137-26.729,10.555-33.51c11.814-6.807,26.644-3.351,34.266,7.529c6.1-5.094,11.651-10.683,16.735-16.663
	c-10.921-7.693-14.285-22.497-7.547-34.304c6.792-11.738,21.379-16.21,33.49-10.588c2.624-7.309,4.659-14.925,6.006-22.779
	C384.988,280.712,374.569,269.563,374.569,255.995z M256.031,322.522c-36.754,0-66.54-29.747-66.54-66.529
	c0-36.762,29.786-66.516,66.54-66.516c36.716,0,66.542,29.755,66.542,66.516C322.573,292.774,292.746,322.522,256.031,322.522z"/>
<g>
	<path style="fill:#242D3C;" d="M256.031,332.012c-41.907,0-76.006-34.099-76.006-76.009c0-41.912,34.099-76.006,76.006-76.006
		c41.925,0,76.027,34.094,76.027,76.006C332.058,297.912,297.956,332.012,256.031,332.012z M256.031,198.958
		c-31.455,0-57.039,25.59-57.039,57.044c0,31.457,25.585,57.047,57.039,57.047c31.467,0,57.065-25.59,57.065-57.047
		C313.096,224.548,287.498,198.958,256.031,198.958z"/>
	<path style="fill:#242D3C;" d="M38.692,237.814l-18.903-1.551C29.33,120.376,120.371,29.332,236.257,19.794l1.554,18.893
		C131.213,47.468,47.468,131.215,38.692,237.814z"/>
	<path style="fill:#242D3C;" d="M306.145,487.706l-3.994-18.527c6.221-1.347,12.467-2.982,18.563-4.872l5.614,18.109
		C319.703,484.475,312.906,486.257,306.145,487.706z M345.974,475.361l-7.201-17.546c5.891-2.419,11.748-5.128,17.408-8.056
		l8.727,16.832C358.751,469.773,352.376,472.73,345.974,475.361z M382.986,456.184l-10.171-16.005
		c5.363-3.407,10.657-7.112,15.731-10.998l11.533,15.053C394.568,448.461,388.818,452.48,382.986,456.184z M416.059,430.843
		l-12.808-13.988c4.7-4.301,9.267-8.868,13.573-13.571l13.98,12.813C426.127,421.199,421.166,426.158,416.059,430.843z
		 M444.201,400.125l-15.045-11.543c3.886-5.066,7.588-10.358,10.99-15.718l16.008,10.173
		C452.449,388.864,448.425,394.614,444.201,400.125z M466.552,364.969l-16.837-8.732c2.934-5.655,5.647-11.507,8.067-17.395
		l17.541,7.214C472.694,352.456,469.742,358.82,466.552,364.969z M482.381,326.441l-18.109-5.629
		c1.894-6.083,3.53-12.319,4.877-18.537l18.529,3.996C486.218,313.032,484.436,319.823,482.381,326.441z"/>
	<path style="fill:#242D3C;" d="M473.313,237.814c-8.783-106.601-92.526-190.349-199.124-199.13l1.554-18.893
		c115.891,9.541,206.922,100.582,216.463,216.468L473.313,237.814z"/>
	<path style="fill:#242D3C;" d="M205.732,487.688c-6.756-1.464-13.545-3.246-20.163-5.297l5.622-18.112
		c6.085,1.892,12.326,3.528,18.537,4.864L205.732,487.688z M165.942,475.328c-6.39-2.624-12.751-5.581-18.911-8.765l8.727-16.842
		c5.66,2.931,11.512,5.647,17.39,8.067L165.942,475.328z M128.963,456.154c-5.834-3.704-11.579-7.729-17.088-11.953l11.543-15.043
		c5.064,3.884,10.35,7.58,15.716,10.998L128.963,456.154z M95.903,430.799c-5.112-4.685-10.068-9.644-14.746-14.746l13.988-12.813
		c4.301,4.703,8.868,9.26,13.571,13.581L95.903,430.799z M67.761,400.074c-4.216-5.501-8.241-11.254-11.948-17.091l16.005-10.171
		c3.412,5.368,7.109,10.665,10.993,15.726L67.761,400.074z M45.414,364.91c-3.187-6.159-6.134-12.523-8.776-18.936l17.549-7.199
		c2.414,5.896,5.128,11.748,8.059,17.403L45.414,364.91z M29.581,326.331c-2.053-6.62-3.832-13.417-5.289-20.191l18.542-3.986
		c1.334,6.226,2.972,12.47,4.859,18.56L29.581,326.331z"/>
	<path style="fill:#242D3C;" d="M284.442,512h-56.886v-56.888h56.886V512z M246.518,493.038h18.962v-18.962h-18.962V493.038z"/>
	<path style="fill:#242D3C;" d="M56.888,284.444H0v-56.886h56.886v56.886H56.888z M18.964,265.482h18.962V246.52H18.964V265.482z"/>
	<path style="fill:#242D3C;" d="M512,284.444h-56.888v-56.886H512V284.444z M474.076,265.482h18.962V246.52h-18.962V265.482z"/>
	<path style="fill:#242D3C;" d="M284.442,56.891h-56.886V0h56.886V56.891z M246.518,37.926h18.962V18.967h-18.962V37.926z"/>
	<rect x="274.97" y="18.967" style="fill:#242D3C;" width="189.619" height="18.962"/>
	<rect x="47.406" y="18.967" style="fill:#242D3C;" width="189.645" height="18.962"/>
	<path style="fill:#242D3C;" d="M28.444,56.891C12.762,56.891,0,44.134,0,28.447S12.762,0,28.444,0s28.442,12.762,28.442,28.449
		C56.888,44.134,44.127,56.891,28.444,56.891z M28.444,18.967c-5.23,0-9.482,4.25-9.482,9.482c0,5.23,4.25,9.48,9.482,9.48
		c5.23,0,9.48-4.25,9.48-9.48C37.924,23.217,33.674,18.967,28.444,18.967z"/>
	<path style="fill:#242D3C;" d="M483.556,56.891c-15.683,0-28.442-12.756-28.442-28.442C455.114,12.762,467.873,0,483.556,0
		C499.243,0,512,12.759,512,28.447S499.243,56.891,483.556,56.891z M483.556,18.967c-5.23,0-9.48,4.25-9.48,9.482
		c0,5.23,4.25,9.48,9.48,9.48s9.482-4.25,9.482-9.48C493.038,23.217,488.786,18.967,483.556,18.967z"/>
</g>
<g>
</g>
<g>
</g>
<g>
</g>
<g>
</g>
<g>
</g>
<g>
</g>
<g>
</g>
<g>
</g>
<g>
</g>
<g>
</g>
<g>
</g>
<g>
</g>
<g>
</g>
<g>
</g>
<g>
</g>
</svg>
